<svg width="276" height="190" viewBox="0 0 276 190" fill="none" xmlns="http://www.w3.org/2000/svg">
<path fill-rule="evenodd" clip-rule="evenodd" d="M12.3866 94.8306C12.3866 89.0942 7.73638 84.4439 2 84.4439L2.00003 72.7592L2.00015 72.7592C4.86834 72.7592 7.19347 70.434 7.19347 67.5658C7.19347 64.6977 4.86834 62.3725 2.00015 62.3725L2.00003 62.3725L2.00003 50.6875L2.00015 50.6875C4.86834 50.6875 7.19347 48.3624 7.19347 45.4942C7.19347 42.626 4.86834 40.3009 2.00015 40.3009L2.00002 40.3009L2.00002 28.6159L2.00012 28.6159C16.8411 28.6159 28.9126 16.7583 29.2575 2.00027L246.743 2.00026C247.088 16.7583 259.159 28.6159 274 28.6159L274 40.3009C271.132 40.3009 268.807 42.626 268.807 45.4942C268.807 48.3624 271.132 50.6875 274 50.6875L274 62.3725C271.132 62.3725 268.807 64.6977 268.807 67.5658C268.807 70.434 271.132 72.7592 274 72.7592L274 84.4439C268.264 84.4439 263.614 89.0942 263.614 94.8306C263.614 100.567 268.264 105.217 274 105.217L274 116.902C271.132 116.902 268.807 119.227 268.807 122.096C268.807 124.964 271.132 127.289 274 127.289L274 138.974C271.132 138.974 268.807 141.299 268.807 144.167C268.807 147.035 271.132 149.36 274 149.36L274 161.046C258.942 161.046 246.735 173.252 246.735 188.31L246.735 188.311L29.265 188.311L29.265 188.31C29.265 173.252 17.0581 161.046 2.00012 161.046L2.00003 161.046L2.00003 149.36L2.00015 149.36C4.86834 149.36 7.19347 147.035 7.19347 144.167C7.19347 141.299 4.86834 138.974 2.00015 138.974L2.00003 138.974L2.00003 127.289L2.00015 127.289C4.86834 127.289 7.19347 124.964 7.19347 122.096C7.19347 119.227 4.86834 116.902 2.00015 116.902L2.00003 116.902L2 105.217C7.73638 105.217 12.3866 100.567 12.3866 94.8306Z" fill="#FFA646"/>
<path d="M2 84.4439L0.701666 84.4439L0.701663 85.7422L2 85.7422L2 84.4439ZM2.00003 72.7592L2.00003 71.4608L0.7017 71.4608L0.701697 72.7592L2.00003 72.7592ZM2.00003 62.3725L0.701696 62.3725L0.701696 63.6709L2.00003 63.6709L2.00003 62.3725ZM2.00003 50.6875L2.00002 49.3892L0.701696 49.3892L0.701696 50.6875L2.00003 50.6875ZM2.00002 40.3009L0.701695 40.3009L0.701695 41.5992L2.00002 41.5992L2.00002 40.3009ZM2.00002 28.6159L2.00002 27.3176L0.701695 27.3176L0.701695 28.6159L2.00002 28.6159ZM29.2575 2.00027L29.2575 0.701944L27.9891 0.701944L27.9595 1.96994L29.2575 2.00027ZM246.743 2.00026L248.041 1.96993L248.011 0.701935L246.743 0.701935L246.743 2.00026ZM274 28.6159L275.298 28.6159L275.298 27.3176L274 27.3176L274 28.6159ZM274 40.3009L274 41.5992L275.299 41.5992L275.299 40.3009L274 40.3009ZM274 50.6875L275.299 50.6875L275.299 49.3892L274 49.3892L274 50.6875ZM274 62.3725L274 63.6709L275.299 63.6709L275.299 62.3725L274 62.3725ZM274 72.7592L275.299 72.7592L275.298 71.4608L274 71.4608L274 72.7592ZM274 84.4439L274 85.7422L275.299 85.7422L275.299 84.4439L274 84.4439ZM274 105.217L275.299 105.217L275.299 103.919L274 103.919L274 105.217ZM274 116.902L274 118.201L275.298 118.201L275.299 116.902L274 116.902ZM274 127.289L275.299 127.289L275.299 125.99L274 125.991L274 127.289ZM274 138.974L274 140.272L275.299 140.272L275.299 138.974L274 138.974ZM274 149.36L275.299 149.36L275.299 148.062L274 148.062L274 149.36ZM274 161.046L274 162.344L275.298 162.344L275.298 161.046L274 161.046ZM246.735 188.311L246.735 189.609L248.034 189.609L248.034 188.311L246.735 188.311ZM29.265 188.311L27.9667 188.311L27.9667 189.609L29.265 189.609L29.265 188.311ZM2.00012 161.046L2.00012 159.747L2.00012 161.046ZM2.00003 161.046L0.701701 161.046L0.701701 162.344L2.00003 162.344L2.00003 161.046ZM2.00003 149.36L2.00003 148.062L0.7017 148.062L0.7017 149.36L2.00003 149.36ZM2.00015 149.36L2.00015 148.062L2.00015 149.36ZM2.00015 138.974L2.00015 137.676L2.00015 138.974ZM2.00003 138.974L0.7017 138.974L0.7017 140.272L2.00003 140.272L2.00003 138.974ZM2.00003 127.289L2.00003 125.991L0.701699 125.991L0.701699 127.289L2.00003 127.289ZM2.00015 127.289L2.00015 125.991L2.00015 127.289ZM2.00003 116.902L0.701699 116.902L0.701702 118.201L2.00003 118.201L2.00003 116.902ZM2 105.217L2 103.919L0.701664 103.919L0.701667 105.217L2 105.217ZM2 85.7422C7.01933 85.7422 11.0883 89.8112 11.0883 94.8306L13.685 94.8306C13.685 88.3771 8.45342 83.1456 2 83.1456L2 85.7422ZM0.701697 72.7592L0.701666 84.4439L3.29832 84.4439L3.29836 72.7592L0.701697 72.7592ZM2.00015 71.4608L2.00003 71.4608L2.00003 74.0575L2.00015 74.0575L2.00015 71.4608ZM5.89514 67.5658C5.89514 69.717 4.1513 71.4608 2.00015 71.4608L2.00015 74.0575C5.58539 74.0575 8.4918 71.1511 8.4918 67.5658L5.89514 67.5658ZM2.00015 63.6709C4.1513 63.6709 5.89514 65.4147 5.89514 67.5658L8.4918 67.5658C8.4918 63.9806 5.58539 61.0742 2.00015 61.0742L2.00015 63.6709ZM2.00003 63.6709L2.00015 63.6709L2.00015 61.0742L2.00003 61.0742L2.00003 63.6709ZM0.701696 50.6875L0.701696 62.3725L3.29835 62.3725L3.29835 50.6875L0.701696 50.6875ZM2.00015 49.3892L2.00002 49.3892L2.00003 51.9859L2.00015 51.9859L2.00015 49.3892ZM5.89514 45.4942C5.89514 47.6453 4.1513 49.3892 2.00015 49.3892L2.00015 51.9859C5.58539 51.9859 8.4918 49.0794 8.4918 45.4942L5.89514 45.4942ZM2.00015 41.5992C4.1513 41.5992 5.89514 43.3431 5.89514 45.4942L8.4918 45.4942C8.4918 41.909 5.58539 39.0026 2.00015 39.0026L2.00015 41.5992ZM2.00002 41.5992L2.00015 41.5992L2.00015 39.0026L2.00002 39.0026L2.00002 41.5992ZM0.701695 28.6159L0.701695 40.3009L3.29835 40.3009L3.29835 28.6159L0.701695 28.6159ZM2.00012 27.3176L2.00002 27.3176L2.00002 29.9142L2.00012 29.9142L2.00012 27.3176ZM27.9595 1.96994C27.631 16.0246 16.1342 27.3176 2.00012 27.3176L2.00012 29.9142C17.548 29.9142 30.1941 17.492 30.5554 2.03061L27.9595 1.96994ZM246.743 0.701935L29.2575 0.701944L29.2575 3.2986L246.743 3.29859L246.743 0.701935ZM274 27.3176C259.866 27.3176 248.369 16.0246 248.041 1.96993L245.445 2.0306C245.806 17.492 258.452 29.9142 274 29.9142L274 27.3176ZM275.299 40.3009L275.298 28.6159L272.702 28.6159L272.702 40.3009L275.299 40.3009ZM270.105 45.4942C270.105 43.3431 271.849 41.5992 274 41.5992L274 39.0026C270.415 39.0026 267.509 41.909 267.509 45.4942L270.105 45.4942ZM274 49.3892C271.849 49.3892 270.105 47.6453 270.105 45.4942L267.509 45.4942C267.509 49.0794 270.415 51.9859 274 51.9859L274 49.3892ZM275.299 62.3725L275.299 50.6875L272.702 50.6875L272.702 62.3725L275.299 62.3725ZM270.105 67.5658C270.105 65.4147 271.849 63.6709 274 63.6709L274 61.0742C270.415 61.0742 267.509 63.9806 267.509 67.5658L270.105 67.5658ZM274 71.4608C271.849 71.4608 270.105 69.717 270.105 67.5658L267.509 67.5658C267.509 71.1511 270.415 74.0575 274 74.0575L274 71.4608ZM275.299 84.4439L275.299 72.7592L272.702 72.7592L272.702 84.4439L275.299 84.4439ZM264.912 94.8306C264.912 89.8112 268.981 85.7422 274 85.7422L274 83.1456C267.547 83.1456 262.315 88.3771 262.315 94.8306L264.912 94.8306ZM274 103.919C268.981 103.919 264.912 99.8499 264.912 94.8306L262.315 94.8306C262.315 101.284 267.547 106.516 274 106.516L274 103.919ZM275.299 116.902L275.299 105.217L272.702 105.217L272.702 116.902L275.299 116.902ZM270.105 122.096C270.105 119.944 271.849 118.201 274 118.201L274 115.604C270.415 115.604 267.509 118.51 267.509 122.096L270.105 122.096ZM274 125.991C271.849 125.991 270.105 124.247 270.105 122.096L267.509 122.096C267.509 125.681 270.415 128.587 274 128.587L274 125.991ZM275.299 138.974L275.299 127.289L272.702 127.289L272.702 138.974L275.299 138.974ZM270.105 144.167C270.105 142.016 271.849 140.272 274 140.272L274 137.676C270.415 137.676 267.509 140.582 267.509 144.167L270.105 144.167ZM274 148.062C271.849 148.062 270.105 146.318 270.105 144.167L267.509 144.167C267.509 147.752 270.415 150.659 274 150.659L274 148.062ZM275.298 161.046L275.299 149.36L272.702 149.36L272.702 161.046L275.298 161.046ZM248.034 188.31C248.034 173.97 259.659 162.344 274 162.344L274 159.747C258.225 159.747 245.437 172.535 245.437 188.31L248.034 188.31ZM248.034 188.311L248.034 188.31L245.437 188.31L245.437 188.311L248.034 188.311ZM29.265 189.609L246.735 189.609L246.735 187.012L29.265 187.012L29.265 189.609ZM27.9667 188.31L27.9667 188.311L30.5634 188.311L30.5634 188.31L27.9667 188.31ZM2.00012 162.344C16.3411 162.344 27.9667 173.97 27.9667 188.31L30.5634 188.31C30.5634 172.535 17.7752 159.747 2.00012 159.747L2.00012 162.344ZM2.00003 162.344L2.00012 162.344L2.00012 159.747L2.00003 159.747L2.00003 162.344ZM0.7017 149.36L0.701701 161.046L3.29836 161.046L3.29836 149.36L0.7017 149.36ZM2.00015 148.062L2.00003 148.062L2.00003 150.659L2.00015 150.659L2.00015 148.062ZM5.89514 144.167C5.89514 146.318 4.1513 148.062 2.00015 148.062L2.00015 150.659C5.58539 150.659 8.4918 147.752 8.4918 144.167L5.89514 144.167ZM2.00015 140.272C4.1513 140.272 5.89514 142.016 5.89514 144.167L8.4918 144.167C8.4918 140.582 5.58539 137.676 2.00015 137.676L2.00015 140.272ZM2.00003 140.272L2.00015 140.272L2.00015 137.676L2.00003 137.676L2.00003 140.272ZM0.701699 127.289L0.7017 138.974L3.29836 138.974L3.29836 127.289L0.701699 127.289ZM2.00015 125.991L2.00003 125.991L2.00003 128.587L2.00015 128.587L2.00015 125.991ZM5.89514 122.096C5.89514 124.247 4.1513 125.991 2.00015 125.991L2.00015 128.587C5.58539 128.587 8.4918 125.681 8.4918 122.096L5.89514 122.096ZM2.00015 118.201C4.1513 118.201 5.89514 119.944 5.89514 122.096L8.4918 122.096C8.4918 118.51 5.58539 115.604 2.00015 115.604L2.00015 118.201ZM2.00003 118.201L2.00015 118.201L2.00015 115.604L2.00003 115.604L2.00003 118.201ZM0.701667 105.217L0.701699 116.902L3.29836 116.902L3.29833 105.217L0.701667 105.217ZM11.0883 94.8306C11.0883 99.8499 7.01933 103.919 2 103.919L2 106.516C8.45342 106.516 13.685 101.284 13.685 94.8306L11.0883 94.8306Z" fill="#0C0C0C"/>
<rect x="27" y="165" width="139" height="223" rx="13" transform="rotate(-90 27 165)" fill="white"/>
<path d="M39.36 132.1C40.84 132.1 41.9933 132.393 42.82 132.98C43.6333 133.553 44.2 134.367 44.52 135.42C44.84 136.473 45 137.713 45 139.14L45 142.24L33.74 142.24L33.74 139.14C33.74 137.713 33.9533 136.473 34.38 135.42C34.7933 134.367 35.4133 133.553 36.24 132.98C37.0667 132.393 38.1067 132.1 39.36 132.1ZM43.32 140.22L43.32 138.56C43.32 137.68 43.22 136.92 43.02 136.28C42.8067 135.64 42.4133 135.147 41.84 134.8C41.2667 134.453 40.4333 134.28 39.34 134.28C38.0467 134.28 37.0867 134.667 36.46 135.44C35.82 136.2 35.5 137.24 35.5 138.56L35.5 140.22L43.32 140.22ZM45.2 127.811C45.2 128.944 44.8133 129.751 44.04 130.231C43.2667 130.711 42.2533 130.951 41 130.951C39.7333 130.951 38.7133 130.711 37.94 130.231C37.1533 129.738 36.76 128.931 36.76 127.811C36.76 127.171 36.8733 126.664 37.1 126.291C37.3133 125.918 37.5533 125.638 37.82 125.451C38.0867 125.264 38.2867 125.151 38.42 125.111L38.42 125.071L36.78 125.071L36.78 122.971L45 122.971L45 124.731L43.66 125.071L43.66 125.111C43.78 125.151 43.9667 125.271 44.22 125.471C44.46 125.658 44.6867 125.944 44.9 126.331C45.1 126.704 45.2 127.198 45.2 127.811ZM43.48 126.971C43.48 126.224 43.2467 125.724 42.78 125.471C42.3 125.204 41.7133 125.071 41.02 125.071C40.2867 125.071 39.6933 125.204 39.24 125.471C38.7867 125.738 38.56 126.238 38.56 126.971C38.56 127.491 38.6733 127.898 38.9 128.191C39.1267 128.471 39.4267 128.671 39.8 128.791C40.16 128.898 40.5667 128.951 41.02 128.951C41.4733 128.951 41.8867 128.898 42.26 128.791C42.6333 128.671 42.9333 128.471 43.16 128.191C43.3733 127.898 43.48 127.491 43.48 126.971ZM48.82 122.349L47.24 122.349L47.24 121.089C47.24 120.889 47.22 120.715 47.18 120.569C47.14 120.422 47.0333 120.275 46.86 120.129C46.7 119.982 46.4333 119.815 46.06 119.629L44.86 119.089L36.78 122.289L36.78 120.189L42.76 118.089L36.78 115.829L36.78 113.729L46.26 117.769C47.0067 118.089 47.56 118.382 47.92 118.649C48.2933 118.915 48.5333 119.215 48.64 119.549C48.76 119.869 48.82 120.282 48.82 120.789L48.82 122.349ZM45 108.285L43.3 108.285C43.3 108.285 43.2133 108.118 43.04 107.785C42.8533 107.438 42.6067 107.005 42.3 106.485C41.98 105.965 41.62 105.418 41.22 104.845C40.8067 104.272 40.3667 103.745 39.9 103.265C39.42 102.785 38.9267 102.418 38.42 102.165C37.8067 101.858 37.2667 101.765 36.8 101.885C36.3333 101.992 35.9733 102.238 35.72 102.625C35.4533 103.012 35.32 103.472 35.32 104.005C35.32 104.725 35.56 105.298 36.04 105.725C36.52 106.152 37.26 106.298 38.26 106.165L38 108.065C37.08 108.158 36.2933 108.032 35.64 107.685C34.9867 107.325 34.4867 106.805 34.14 106.125C33.78 105.445 33.6 104.665 33.6 103.785C33.6 103.065 33.7333 102.418 34 101.845C34.2667 101.272 34.6333 100.812 35.1 100.465C35.5667 100.105 36.1 99.8983 36.7 99.845C37.3 99.7917 37.94 99.9317 38.62 100.265C39.1267 100.518 39.6133 100.872 40.08 101.325C40.5333 101.765 40.9467 102.245 41.32 102.765C41.6933 103.272 42.02 103.772 42.3 104.265C42.5667 104.745 42.7867 105.165 42.96 105.525C43.12 105.885 43.2133 106.125 43.24 106.245L43.24 99.645L45 99.645L45 108.285ZM35.5 94.1984L33.74 94.1984L33.74 85.4984L35.5 85.4984L35.5 88.8384L45 88.8384L45 90.8784L35.5 90.8784L35.5 94.1984ZM35.88 83.3922C35.8933 83.8322 35.7933 84.1255 35.58 84.2722C35.3533 84.4055 35.0867 84.4722 34.78 84.4722C34.4867 84.4722 34.2333 84.3989 34.02 84.2522C33.8067 84.1055 33.7 83.8189 33.7 83.3922C33.7 82.9789 33.8067 82.7055 34.02 82.5722C34.2333 82.4255 34.4867 82.3522 34.78 82.3522C35.0867 82.3522 35.3467 82.4255 35.56 82.5722C35.76 82.7055 35.8667 82.9789 35.88 83.3922ZM45 84.4322L36.78 84.4322L36.78 82.3922L45 82.3922L45 84.4322ZM45.2 76.6516C45.2 77.4249 45.0467 78.1249 44.74 78.7516C44.42 79.3782 43.9533 79.8782 43.34 80.2516C42.7133 80.6249 41.9533 80.8116 41.06 80.8116C40.1667 80.7849 39.4 80.5916 38.76 80.2316C38.12 79.8582 37.6267 79.3649 37.28 78.7516C36.9333 78.1249 36.76 77.4116 36.76 76.6116C36.76 75.7982 36.92 75.1049 37.24 74.5316C37.5467 73.9449 37.9533 73.4916 38.46 73.1716C38.9533 72.8516 39.4667 72.6716 40 72.6316L40 74.5116C39.0133 74.7116 38.52 75.3916 38.52 76.5516C38.52 77.2716 38.74 77.8316 39.18 78.2316C39.62 78.6182 40.1933 78.8116 40.9 78.8116C41.6733 78.8116 42.2933 78.6249 42.76 78.2516C43.2133 77.8649 43.44 77.2982 43.44 76.5516C43.44 76.0449 43.3067 75.6049 43.04 75.2316C42.7733 74.8449 42.38 74.6049 41.86 74.5116L41.86 72.6316C42.4333 72.6716 42.9733 72.8582 43.48 73.1916C43.9867 73.5116 44.4 73.9649 44.72 74.5516C45.04 75.1249 45.2 75.8249 45.2 76.6516ZM45 69.0966L45 71.1366L33.74 71.1366L33.74 69.0966L40.64 69.0966L36.74 65.5966L36.74 63.0966L40.22 66.4566L45 63.0366L45 65.4766L41.7 67.8966L42.94 69.0966L45 69.0966ZM45.2 58.4317C45.2 59.3784 45 60.1517 44.6 60.7517C44.1867 61.3384 43.6667 61.7784 43.04 62.0717C42.4 62.3517 41.7267 62.4984 41.02 62.5117C40.1933 62.5251 39.46 62.3717 38.82 62.0517C38.1667 61.7184 37.66 61.2517 37.3 60.6517C36.9267 60.0384 36.74 59.3184 36.74 58.4917C36.74 57.7584 36.9 57.1051 37.22 56.5317C37.54 55.9451 37.9933 55.4784 38.58 55.1317C39.1533 54.7851 39.8333 54.6051 40.62 54.5917C40.6467 54.5917 40.72 54.5917 40.84 54.5917C40.96 54.5917 41.06 54.5917 41.14 54.5917L41.14 60.5717C41.9 60.5717 42.4867 60.3851 42.9 60.0117C43.3 59.6384 43.5 59.1251 43.5 58.4717C43.5 57.9651 43.3733 57.5451 43.12 57.2117C42.8667 56.8651 42.5333 56.6584 42.12 56.5917L42.12 54.6117C42.9867 54.7051 43.72 55.0784 44.32 55.7317C44.9067 56.3851 45.2 57.2851 45.2 58.4317ZM40.22 60.5117L40.22 56.6317C40.1267 56.6451 39.98 56.6784 39.78 56.7317C39.58 56.7717 39.3733 56.8584 39.16 56.9917C38.9467 57.1117 38.7667 57.2984 38.62 57.5517C38.4733 57.8051 38.4 58.1317 38.4 58.5317C38.4 59.0651 38.5133 59.4717 38.74 59.7517C38.9533 60.0184 39.2067 60.2117 39.5 60.3317C39.78 60.4384 40.02 60.4984 40.22 60.5117ZM45 50.3334C45 50.9868 44.84 51.4801 44.52 51.8134C44.2 52.1334 43.68 52.2934 42.96 52.2934L38.22 52.2934L38.22 53.5334L36.78 53.5334C36.78 53.1468 36.74 52.8468 36.66 52.6334C36.58 52.4201 36.3933 52.2668 36.1 52.1734C35.8067 52.0801 35.3333 52.0334 34.68 52.0334L34.68 50.3934L36.78 50.3934L36.78 48.5134L38.22 48.5134L38.22 50.3934L43.4 50.3934L43.4 48.4734L45 48.4734L45 50.3334Z" fill="#0C0C0C"/>
<line x1="52" y1="160" x2="52" y2="31" stroke="#0C0C0C" stroke-width="2"/>
<path d="M89.852 78.724C88.5293 78.724 87.548 78.3027 86.908 77.46C86.268 76.6067 85.948 75.46 85.948 74.02C85.948 73.0707 86.0813 72.2493 86.348 71.556C86.6253 70.852 87.052 70.308 87.628 69.924C88.204 69.5293 88.9453 69.332 89.852 69.332C91.196 69.332 92.1827 69.7587 92.812 70.612C93.4413 71.4547 93.756 72.5907 93.756 74.02C93.756 74.948 93.6173 75.7693 93.34 76.484C93.0627 77.188 92.636 77.7373 92.06 78.132C91.484 78.5267 90.748 78.724 89.852 78.724ZM89.852 77.364C90.6733 77.364 91.276 77.0813 91.66 76.516C92.044 75.94 92.236 75.108 92.236 74.02C92.236 72.932 92.044 72.1053 91.66 71.54C91.2867 70.9747 90.684 70.692 89.852 70.692C89.0413 70.692 88.4387 70.964 88.044 71.508C87.66 72.052 87.468 72.8893 87.468 74.02C87.468 75.108 87.6547 75.94 88.028 76.516C88.412 77.0813 89.02 77.364 89.852 77.364ZM98.3948 78.66C97.6801 78.66 97.0774 78.5373 96.5868 78.292C96.0961 78.0467 95.7121 77.732 95.4348 77.348C95.1574 76.9533 94.9761 76.532 94.8908 76.084L96.5068 75.86C96.5174 75.9347 96.5548 76.052 96.6188 76.212C96.6934 76.3613 96.8001 76.5213 96.9388 76.692C97.0881 76.852 97.2801 76.9907 97.5148 77.108C97.7601 77.2253 98.0694 77.284 98.4427 77.284C99.0401 77.284 99.4988 77.108 99.8188 76.756C100.139 76.404 100.315 76.0093 100.347 75.572C100.379 75.2627 100.331 74.9587 100.203 74.66C100.075 74.3613 99.8668 74.116 99.5788 73.924C99.2908 73.732 98.9281 73.636 98.4908 73.636C98.0854 73.636 97.7601 73.7107 97.5148 73.86C97.2801 73.9987 97.1094 74.1427 97.0028 74.292C96.8961 74.4413 96.8374 74.5213 96.8268 74.532L95.1468 74.244L95.6428 69.492H101.531V70.9H96.7788L96.4748 73.748C96.4748 73.748 96.5174 73.6893 96.6028 73.572C96.6988 73.444 96.8428 73.3 97.0348 73.14C97.2374 72.98 97.4934 72.8413 97.8028 72.724C98.1228 72.596 98.5068 72.532 98.9548 72.532C99.6694 72.532 100.256 72.6813 100.715 72.98C101.173 73.2787 101.504 73.6627 101.707 74.132C101.92 74.6013 102.005 75.092 101.963 75.604C101.92 76.116 101.755 76.6067 101.467 77.076C101.179 77.5347 100.773 77.9133 100.251 78.212C99.7281 78.5107 99.1094 78.66 98.3948 78.66ZM106.398 78.5L109.278 69.492H111.95L114.91 78.5H113.166L112.398 75.956H108.894L108.126 78.5H106.398ZM110.638 70.18L109.278 74.692H112.014L110.638 70.18ZM118.036 78.66C117.46 78.66 117.012 78.548 116.692 78.324C116.372 78.1 116.138 77.812 115.988 77.46C115.85 77.108 115.764 76.74 115.732 76.356C115.7 75.9613 115.684 75.604 115.684 75.284V71.924H117.268V75.284C117.268 75.6147 117.3 75.9293 117.364 76.228C117.428 76.5267 117.562 76.7667 117.764 76.948C117.978 77.1293 118.298 77.22 118.724 77.22C119.14 77.22 119.455 77.1293 119.668 76.948C119.882 76.756 120.026 76.516 120.1 76.228C120.175 75.94 120.218 75.6413 120.228 75.332L120.244 71.924H121.908V78.5H120.516L120.244 77.252H120.212C120.191 77.316 120.138 77.4227 120.052 77.572C119.967 77.7213 119.839 77.8813 119.668 78.052C119.508 78.2227 119.295 78.3667 119.028 78.484C118.762 78.6013 118.431 78.66 118.036 78.66ZM124.963 81.428V79.892H127.843V77.332H127.811C127.801 77.3533 127.753 77.4333 127.667 77.572C127.593 77.7107 127.47 77.8653 127.299 78.036C127.129 78.2067 126.905 78.356 126.627 78.484C126.361 78.6013 126.025 78.66 125.619 78.66C124.649 78.66 123.95 78.3507 123.523 77.732C123.097 77.1133 122.883 76.308 122.883 75.316C122.883 74.2813 123.097 73.46 123.523 72.852C123.961 72.2333 124.659 71.924 125.619 71.924C126.046 71.924 126.398 71.9933 126.675 72.132C126.953 72.26 127.171 72.4147 127.331 72.596C127.491 72.7773 127.603 72.9427 127.667 73.092C127.742 73.2413 127.785 73.332 127.795 73.364H127.827L127.843 71.924H129.523V79.06C129.523 79.9347 129.347 80.548 128.995 80.9C128.654 81.252 128.121 81.428 127.395 81.428H124.963ZM126.131 77.284C126.729 77.284 127.161 77.1027 127.427 76.74C127.694 76.3667 127.827 75.892 127.827 75.316C127.827 74.7613 127.699 74.3027 127.443 73.94C127.187 73.5667 126.761 73.38 126.163 73.38C125.726 73.38 125.385 73.476 125.139 73.668C124.894 73.8493 124.718 74.0893 124.611 74.388C124.515 74.676 124.467 74.9853 124.467 75.316C124.467 75.6467 124.51 75.9667 124.595 76.276C124.691 76.5747 124.857 76.82 125.091 77.012C125.337 77.1933 125.683 77.284 126.131 77.284ZM133.005 78.66C132.429 78.66 131.981 78.548 131.661 78.324C131.341 78.1 131.106 77.812 130.957 77.46C130.818 77.108 130.733 76.74 130.701 76.356C130.669 75.9613 130.653 75.604 130.653 75.284V71.924H132.237V75.284C132.237 75.6147 132.269 75.9293 132.333 76.228C132.397 76.5267 132.53 76.7667 132.733 76.948C132.946 77.1293 133.266 77.22 133.693 77.22C134.109 77.22 134.424 77.1293 134.637 76.948C134.85 76.756 134.994 76.516 135.069 76.228C135.144 75.94 135.186 75.6413 135.197 75.332L135.213 71.924H136.877V78.5H135.485L135.213 77.252H135.181C135.16 77.316 135.106 77.4227 135.021 77.572C134.936 77.7213 134.808 77.8813 134.637 78.052C134.477 78.2227 134.264 78.3667 133.997 78.484C133.73 78.6013 133.4 78.66 133.005 78.66ZM140.86 78.66C140.583 78.66 140.273 78.612 139.932 78.516C139.601 78.42 139.281 78.276 138.972 78.084C138.673 77.892 138.423 77.6467 138.22 77.348C138.028 77.0387 137.932 76.676 137.932 76.26H139.436C139.436 76.2813 139.441 76.356 139.452 76.484C139.463 76.6013 139.505 76.74 139.58 76.9C139.665 77.0493 139.804 77.1827 139.996 77.3C140.188 77.4173 140.465 77.476 140.828 77.476C141.255 77.476 141.575 77.4013 141.788 77.252C142.001 77.092 142.108 76.9107 142.108 76.708C142.108 76.4733 142.007 76.292 141.804 76.164C141.612 76.0253 141.361 75.9133 141.052 75.828C140.743 75.7427 140.412 75.6573 140.06 75.572C139.719 75.476 139.393 75.3533 139.084 75.204C138.785 75.0547 138.54 74.852 138.348 74.596C138.156 74.3293 138.06 73.988 138.06 73.572C138.06 72.964 138.305 72.5053 138.796 72.196C139.287 71.876 139.911 71.716 140.668 71.716C141.201 71.716 141.697 71.8013 142.156 71.972C142.615 72.132 142.983 72.3933 143.26 72.756C143.537 73.108 143.676 73.572 143.676 74.148H142.172C142.183 73.8173 142.108 73.572 141.948 73.412C141.799 73.2413 141.607 73.124 141.372 73.06C141.148 72.996 140.929 72.964 140.716 72.964C140.332 72.964 140.039 73.0333 139.836 73.172C139.644 73.3 139.548 73.4707 139.548 73.684C139.548 73.9293 139.644 74.1213 139.836 74.26C140.039 74.388 140.295 74.4947 140.604 74.58C140.924 74.6653 141.255 74.756 141.596 74.852C141.948 74.9373 142.279 75.0547 142.588 75.204C142.908 75.3533 143.164 75.556 143.356 75.812C143.559 76.0573 143.66 76.388 143.66 76.804C143.66 77.4333 143.399 77.9027 142.876 78.212C142.364 78.5107 141.692 78.66 140.86 78.66ZM146.893 78.5C146.37 78.5 145.975 78.372 145.709 78.116C145.453 77.86 145.325 77.444 145.325 76.868V73.076H144.333V71.924C144.642 71.924 144.882 71.892 145.053 71.828C145.223 71.764 145.346 71.6147 145.421 71.38C145.495 71.1453 145.533 70.7667 145.533 70.244H146.845V71.924H148.349V73.076H146.845V77.22H148.381V78.5H146.893ZM153.172 78.5V77.14C153.172 77.14 153.305 77.0707 153.572 76.932C153.849 76.7827 154.196 76.5853 154.612 76.34C155.028 76.084 155.465 75.796 155.924 75.476C156.383 75.1453 156.804 74.7933 157.188 74.42C157.572 74.036 157.865 73.6413 158.068 73.236C158.313 72.7453 158.388 72.3133 158.292 71.94C158.207 71.5667 158.009 71.2787 157.7 71.076C157.391 70.8627 157.023 70.756 156.596 70.756C156.02 70.756 155.561 70.948 155.22 71.332C154.879 71.716 154.761 72.308 154.868 73.108L153.348 72.9C153.273 72.164 153.375 71.5347 153.652 71.012C153.94 70.4893 154.356 70.0893 154.9 69.812C155.444 69.524 156.068 69.38 156.772 69.38C157.348 69.38 157.865 69.4867 158.324 69.7C158.783 69.9133 159.151 70.2067 159.428 70.58C159.716 70.9533 159.881 71.38 159.924 71.86C159.967 72.34 159.855 72.852 159.588 73.396C159.385 73.8013 159.103 74.1907 158.74 74.564C158.388 74.9267 158.004 75.2573 157.588 75.556C157.183 75.8547 156.783 76.116 156.388 76.34C156.004 76.5533 155.668 76.7293 155.38 76.868C155.092 76.996 154.9 77.0707 154.804 77.092H160.084V78.5H153.172ZM165.149 78.724C163.826 78.724 162.845 78.3027 162.205 77.46C161.565 76.6067 161.245 75.46 161.245 74.02C161.245 73.0707 161.378 72.2493 161.645 71.556C161.922 70.852 162.349 70.308 162.925 69.924C163.501 69.5293 164.242 69.332 165.149 69.332C166.493 69.332 167.48 69.7587 168.109 70.612C168.738 71.4547 169.053 72.5907 169.053 74.02C169.053 74.948 168.914 75.7693 168.637 76.484C168.36 77.188 167.933 77.7373 167.357 78.132C166.781 78.5267 166.045 78.724 165.149 78.724ZM165.149 77.364C165.97 77.364 166.573 77.0813 166.957 76.516C167.341 75.94 167.533 75.108 167.533 74.02C167.533 72.932 167.341 72.1053 166.957 71.54C166.584 70.9747 165.981 70.692 165.149 70.692C164.338 70.692 163.736 70.964 163.341 71.508C162.957 72.052 162.765 72.8893 162.765 74.02C162.765 75.108 162.952 75.94 163.325 76.516C163.709 77.0813 164.317 77.364 165.149 77.364ZM170.188 78.5V77.14C170.188 77.14 170.321 77.0707 170.588 76.932C170.865 76.7827 171.212 76.5853 171.628 76.34C172.044 76.084 172.481 75.796 172.94 75.476C173.398 75.1453 173.82 74.7933 174.204 74.42C174.588 74.036 174.881 73.6413 175.084 73.236C175.329 72.7453 175.404 72.3133 175.308 71.94C175.222 71.5667 175.025 71.2787 174.716 71.076C174.406 70.8627 174.038 70.756 173.612 70.756C173.036 70.756 172.577 70.948 172.236 71.332C171.894 71.716 171.777 72.308 171.884 73.108L170.364 72.9C170.289 72.164 170.39 71.5347 170.668 71.012C170.956 70.4893 171.372 70.0893 171.916 69.812C172.46 69.524 173.084 69.38 173.788 69.38C174.364 69.38 174.881 69.4867 175.34 69.7C175.798 69.9133 176.166 70.2067 176.444 70.58C176.732 70.9533 176.897 71.38 176.94 71.86C176.982 72.34 176.87 72.852 176.604 73.396C176.401 73.8013 176.118 74.1907 175.756 74.564C175.404 74.9267 175.02 75.2573 174.604 75.556C174.198 75.8547 173.798 76.116 173.404 76.34C173.02 76.5533 172.684 76.7293 172.396 76.868C172.108 76.996 171.916 77.0707 171.82 77.092H177.1V78.5H170.188ZM182.085 78.66C181.37 78.66 180.73 78.5373 180.164 78.292C179.599 78.0467 179.151 77.6787 178.821 77.188C178.501 76.6867 178.34 76.068 178.34 75.332L179.909 75.108C179.93 75.8013 180.143 76.3347 180.549 76.708C180.965 77.0707 181.487 77.252 182.117 77.252C182.661 77.252 183.109 77.108 183.461 76.82C183.823 76.5213 184.005 76.148 184.005 75.7C184.005 75.348 183.914 75.076 183.733 74.884C183.551 74.6813 183.322 74.5373 183.045 74.452C182.778 74.356 182.511 74.308 182.245 74.308H181.173V73.46H182.277C182.714 73.46 183.087 73.3693 183.397 73.188C183.717 73.0067 183.877 72.708 183.877 72.292C183.877 71.8013 183.706 71.412 183.365 71.124C183.023 70.836 182.565 70.692 181.989 70.692C181.53 70.692 181.157 70.788 180.869 70.98C180.581 71.172 180.362 71.4067 180.213 71.684C180.074 71.9613 179.999 72.228 179.989 72.484L178.533 72.244C178.533 72.0733 178.586 71.8333 178.693 71.524C178.799 71.204 178.975 70.8787 179.221 70.548C179.477 70.2067 179.823 69.9187 180.261 69.684C180.709 69.4493 181.269 69.332 181.941 69.332C183.018 69.332 183.855 69.5667 184.453 70.036C185.05 70.4947 185.349 71.1187 185.349 71.908C185.349 72.4307 185.199 72.8787 184.901 73.252C184.613 73.6253 184.186 73.8493 183.621 73.924C184.186 73.9987 184.645 74.2333 184.997 74.628C185.349 75.012 185.525 75.4867 185.525 76.052C185.525 76.596 185.375 77.0653 185.077 77.46C184.789 77.844 184.383 78.1427 183.861 78.356C183.338 78.5587 182.746 78.66 182.085 78.66Z" fill="#0C0C0C"/>
<path d="M76.416 100.676C75.9253 100.676 75.44 100.617 74.96 100.5C74.4907 100.383 74.064 100.201 73.68 99.956C73.296 99.7107 72.992 99.3907 72.768 98.996C72.544 98.5907 72.4267 98.1053 72.416 97.54H74.064C74.064 97.5933 74.0853 97.7107 74.128 97.892C74.1707 98.0627 74.2667 98.2493 74.416 98.452C74.576 98.6547 74.8213 98.8307 75.152 98.98C75.4933 99.1293 75.952 99.204 76.528 99.204C77.1573 99.204 77.6213 99.0867 77.92 98.852C78.2293 98.6173 78.384 98.3667 78.384 98.1C78.384 97.8013 78.2773 97.5667 78.064 97.396C77.8613 97.2147 77.584 97.0707 77.232 96.964C76.8907 96.8467 76.512 96.74 76.096 96.644C75.6907 96.548 75.28 96.4413 74.864 96.324C74.4587 96.196 74.0853 96.0307 73.744 95.828C73.4133 95.6147 73.152 95.3427 72.96 95.012C72.768 94.6813 72.6827 94.26 72.704 93.748C72.7573 92.9907 73.12 92.3987 73.792 91.972C74.464 91.5453 75.3547 91.332 76.464 91.332C77.104 91.332 77.696 91.4493 78.24 91.684C78.7947 91.908 79.2373 92.2493 79.568 92.708C79.9093 93.156 80.08 93.732 80.08 94.436H78.496C78.496 94.1053 78.4213 93.8387 78.272 93.636C78.1227 93.4227 77.9307 93.2627 77.696 93.156C77.472 93.0387 77.232 92.964 76.976 92.932C76.72 92.8893 76.4907 92.868 76.288 92.868C75.7547 92.868 75.312 92.9587 74.96 93.14C74.6187 93.3213 74.448 93.588 74.448 93.94C74.4373 94.2387 74.5387 94.4787 74.752 94.66C74.9653 94.8413 75.248 94.9853 75.6 95.092C75.952 95.1987 76.336 95.2947 76.752 95.38C77.168 95.4653 77.584 95.572 78 95.7C78.416 95.8173 78.7947 95.9773 79.136 96.18C79.4773 96.372 79.744 96.6387 79.936 96.98C80.128 97.3107 80.208 97.7427 80.176 98.276C80.1333 99.0333 79.7653 99.6253 79.072 100.052C78.3787 100.468 77.4933 100.676 76.416 100.676ZM83.627 100.5C83.1043 100.5 82.7097 100.372 82.443 100.116C82.187 99.86 82.059 99.444 82.059 98.868V95.076H81.067V93.924C81.3763 93.924 81.6163 93.892 81.787 93.828C81.9577 93.764 82.0803 93.6147 82.155 93.38C82.2297 93.1453 82.267 92.7667 82.267 92.244H83.579V93.924H85.083V95.076H83.579V99.22H85.115V100.5H83.627ZM88.598 100.66C87.6913 100.66 87.046 100.351 86.662 99.732C86.278 99.1133 86.086 98.3027 86.086 97.3C86.086 96.2867 86.278 95.4707 86.662 94.852C87.0567 94.2227 87.702 93.908 88.598 93.908C89.11 93.908 89.5153 93.9987 89.814 94.18C90.1127 94.3507 90.3367 94.5427 90.486 94.756C90.6353 94.9693 90.726 95.1293 90.758 95.236H90.79V93.924H92.47V100.5H91.062L90.79 99.428H90.758C90.726 99.524 90.63 99.6733 90.47 99.876C90.3207 100.068 90.0913 100.249 89.782 100.42C89.4833 100.58 89.0887 100.66 88.598 100.66ZM89.27 99.284C89.8673 99.284 90.2673 99.0973 90.47 98.724C90.6833 98.34 90.79 97.8707 90.79 97.316C90.79 96.7293 90.6833 96.2547 90.47 95.892C90.2567 95.5293 89.8567 95.348 89.27 95.348C88.854 95.348 88.5287 95.4387 88.294 95.62C88.07 95.8013 87.91 96.0413 87.814 96.34C87.7287 96.628 87.686 96.9533 87.686 97.316C87.686 97.6787 87.7287 98.0093 87.814 98.308C87.91 98.6067 88.07 98.8467 88.294 99.028C88.5287 99.1987 88.854 99.284 89.27 99.284ZM93.672 100.5V93.924H95.192L95.304 95.748C95.368 95.4707 95.4907 95.1933 95.672 94.916C95.864 94.628 96.1253 94.3933 96.456 94.212C96.7973 94.02 97.2347 93.924 97.768 93.924H98.008V95.748H97.768C96.8507 95.748 96.2107 95.8973 95.848 96.196C95.4853 96.484 95.304 96.9747 95.304 97.668V100.5H93.672ZM101.361 100.5C100.839 100.5 100.444 100.372 100.177 100.116C99.9214 99.86 99.7934 99.444 99.7934 98.868V95.076H98.8014V93.924C99.1107 93.924 99.3507 93.892 99.5214 93.828C99.692 93.764 99.8147 93.6147 99.8894 93.38C99.964 93.1453 100.001 92.7667 100.001 92.244H101.313V93.924H102.817V95.076H101.313V99.22H102.849V100.5H101.361Z" fill="#0C0C0C"/>
<path d="M73.168 121.516V116.076H72.272V114.924H73.168V113.852C73.168 113.276 73.296 112.86 73.552 112.604C73.8187 112.348 74.2133 112.22 74.736 112.22H76.464V113.484H74.8V114.924H76.416V116.076H74.8V121.516H73.168ZM77.2814 121.5V114.924H78.8014L78.9134 116.748C78.9774 116.471 79.1 116.193 79.2814 115.916C79.4734 115.628 79.7347 115.393 80.0654 115.212C80.4067 115.02 80.844 114.924 81.3774 114.924H81.6174V116.748H81.3774C80.46 116.748 79.82 116.897 79.4574 117.196C79.0947 117.484 78.9134 117.975 78.9134 118.668V121.5H77.2814ZM85.6648 121.66C84.9181 121.66 84.2994 121.516 83.8088 121.228C83.3181 120.94 82.9501 120.545 82.7048 120.044C82.4594 119.532 82.3368 118.951 82.3368 118.3C82.3261 117.319 82.5981 116.513 83.1528 115.884C83.7181 115.244 84.5554 114.924 85.6648 114.924C86.7421 114.924 87.5581 115.233 88.1128 115.852C88.6781 116.471 88.9608 117.287 88.9608 118.3C88.9608 118.929 88.8434 119.5 88.6088 120.012C88.3741 120.524 88.0114 120.929 87.5208 121.228C87.0301 121.516 86.4114 121.66 85.6648 121.66ZM85.6648 120.284C86.1341 120.284 86.4914 120.183 86.7368 119.98C86.9928 119.777 87.1634 119.521 87.2488 119.212C87.3341 118.892 87.3768 118.572 87.3768 118.252C87.3768 117.921 87.3341 117.596 87.2488 117.276C87.1634 116.956 86.9928 116.695 86.7368 116.492C86.4914 116.289 86.1341 116.188 85.6648 116.188C85.1848 116.188 84.8168 116.295 84.5608 116.508C84.3154 116.711 84.1448 116.972 84.0488 117.292C83.9634 117.601 83.9208 117.921 83.9208 118.252C83.9208 118.572 83.9634 118.892 84.0488 119.212C84.1448 119.521 84.3154 119.777 84.5608 119.98C84.8168 120.183 85.1848 120.284 85.6648 120.284ZM90.1076 121.5V114.924H91.5316L91.5476 116.348H91.5796C91.5903 116.305 91.633 116.215 91.7076 116.076C91.7823 115.927 91.8943 115.767 92.0436 115.596C92.193 115.415 92.3903 115.26 92.6356 115.132C92.881 114.993 93.185 114.924 93.5476 114.924C94.081 114.924 94.481 115.068 94.7476 115.356C95.0143 115.633 95.2063 115.964 95.3236 116.348H95.3556C95.3663 116.305 95.409 116.215 95.4836 116.076C95.569 115.927 95.6916 115.767 95.8516 115.596C96.0223 115.415 96.2356 115.26 96.4916 115.132C96.7476 114.993 97.0623 114.924 97.4356 114.924C97.8516 114.924 98.1876 115.015 98.4436 115.196C98.6996 115.367 98.897 115.591 99.0356 115.868C99.185 116.135 99.2863 116.423 99.3396 116.732C99.4036 117.041 99.4356 117.34 99.4356 117.628C99.4463 117.905 99.4516 118.135 99.4516 118.316V121.5H98.0756V118.3C98.0756 118.14 98.0703 117.953 98.0596 117.74C98.049 117.516 98.0063 117.303 97.9316 117.1C97.857 116.887 97.7343 116.711 97.5636 116.572C97.393 116.433 97.1583 116.364 96.8596 116.364C96.4863 116.364 96.2036 116.465 96.0116 116.668C95.8196 116.86 95.6863 117.111 95.6116 117.42C95.537 117.719 95.4996 118.033 95.4996 118.364V121.5H94.1236V118.3C94.1236 118.14 94.1183 117.953 94.1076 117.74C94.097 117.516 94.0543 117.303 93.9796 117.1C93.905 116.887 93.7823 116.711 93.6116 116.572C93.441 116.433 93.2063 116.364 92.9076 116.364C92.5343 116.364 92.2516 116.465 92.0596 116.668C91.8676 116.86 91.7343 117.111 91.6596 117.42C91.585 117.719 91.5476 118.033 91.5476 118.364V121.5H90.1076Z" fill="#0C0C0C"/>
<path d="M124.981 121.377C124.694 121.35 124.373 121.322 124.018 121.295C123.703 121.268 123.327 121.247 122.89 121.233C122.452 121.22 121.946 121.213 121.372 121.213C120.265 121.213 118.979 121.261 117.517 121.356C116.054 121.452 114.468 121.637 112.759 121.91C113.06 121.295 113.319 120.516 113.538 119.572C113.757 118.629 113.935 117.624 114.071 116.558C114.222 115.478 114.338 114.384 114.42 113.276C114.502 112.169 114.563 111.137 114.604 110.18C114.646 109.223 114.666 108.396 114.666 107.698C114.68 107.001 114.687 106.522 114.687 106.263C114.687 106.222 114.68 106.058 114.666 105.771C114.666 105.47 114.659 105.08 114.646 104.602C114.632 104.123 114.611 103.576 114.584 102.961C114.57 102.332 114.55 101.669 114.522 100.972C113.771 100.821 113.019 100.685 112.267 100.562C111.528 100.438 110.852 100.336 110.236 100.254C109.525 100.158 108.842 100.083 108.186 100.028C109.129 99.1396 109.901 98.2852 110.503 97.4648C111.104 96.6445 111.583 95.8721 111.938 95.1475C112.308 94.4229 112.581 93.7598 112.759 93.1582C112.95 92.5566 113.101 92.0234 113.21 91.5586C114.591 91.8047 115.855 91.9688 117.004 92.0508C118.166 92.1328 119.212 92.1738 120.142 92.1738C120.757 92.1738 121.311 92.1602 121.803 92.1328C122.295 92.1055 122.712 92.0781 123.054 92.0508C123.45 92.0098 123.799 91.9688 124.1 91.9277C123.936 92.6934 123.792 93.5479 123.669 94.4912C123.546 95.4209 123.437 96.4189 123.341 97.4854C123.245 98.5381 123.17 99.6455 123.115 100.808C123.074 101.97 123.054 103.166 123.054 104.396C123.054 105.818 123.088 107.268 123.156 108.744C123.225 110.207 123.334 111.663 123.484 113.112C123.648 114.562 123.847 115.983 124.079 117.378C124.325 118.772 124.626 120.105 124.981 121.377ZM148.586 106.119C148.477 106.734 148.395 107.343 148.34 107.944C148.299 108.532 148.278 109.134 148.278 109.749C148.278 110.938 148.381 112.128 148.586 113.317C148.271 113.167 147.937 113.03 147.581 112.907C147.226 112.784 146.87 112.668 146.515 112.559C146.665 114.117 146.863 115.642 147.109 117.132C147.369 118.608 147.69 120.023 148.073 121.377C147.8 121.35 147.485 121.322 147.13 121.295C146.815 121.268 146.433 121.247 145.981 121.233C145.544 121.22 145.038 121.213 144.464 121.213C143.37 121.213 142.085 121.261 140.608 121.356C139.146 121.452 137.56 121.637 135.851 121.91C136.097 121.404 136.315 120.775 136.507 120.023C136.698 119.271 136.862 118.465 136.999 117.604C137.149 116.729 137.266 115.819 137.348 114.876C137.443 113.933 137.519 113.017 137.573 112.128C137.3 112.142 136.821 112.135 136.138 112.107C135.454 112.08 134.6 112.08 133.574 112.107C132.562 112.135 131.407 112.21 130.108 112.333C128.81 112.456 127.408 112.668 125.904 112.969C126.588 110.863 127.224 108.915 127.812 107.124C128.399 105.333 128.933 103.61 129.411 101.956C129.89 100.302 130.3 98.668 130.642 97.0547C130.983 95.4414 131.25 93.7598 131.441 92.0098C134.08 92.2422 136.705 92.3447 139.316 92.3174C141.928 92.2764 144.553 92.1465 147.191 91.9277C146.877 93.4727 146.624 95.3252 146.433 97.4854C146.241 99.6318 146.146 101.936 146.146 104.396V106.878C146.61 106.769 147.048 106.659 147.458 106.55C147.868 106.44 148.244 106.297 148.586 106.119ZM137.778 107.473C137.778 107.117 137.771 106.646 137.758 106.058C137.758 105.47 137.744 104.807 137.717 104.068C137.703 103.33 137.683 102.537 137.655 101.689C137.628 100.828 137.587 99.9531 137.532 99.0645C136.917 100.254 136.425 101.56 136.056 102.981C135.687 104.403 135.352 105.859 135.051 107.35C135.365 107.377 135.646 107.397 135.892 107.411C136.138 107.425 136.363 107.438 136.568 107.452C136.773 107.452 136.972 107.459 137.163 107.473C137.354 107.473 137.56 107.473 137.778 107.473ZM159.517 101.854C159.517 103.016 159.715 103.932 160.111 104.602C160.508 105.258 161.137 105.586 161.998 105.586C162.34 105.586 162.661 105.504 162.962 105.34C163.263 105.162 163.522 104.909 163.741 104.581C163.96 104.253 164.131 103.863 164.254 103.412C164.391 102.947 164.466 102.428 164.479 101.854C164.493 101.334 164.438 100.842 164.315 100.377C164.206 99.8984 164.042 99.4814 163.823 99.126C163.618 98.7568 163.358 98.4697 163.044 98.2646C162.729 98.0459 162.381 97.9365 161.998 97.9365C161.602 97.9365 161.246 98.0391 160.932 98.2441C160.631 98.4492 160.371 98.7295 160.152 99.085C159.947 99.4404 159.79 99.8574 159.681 100.336C159.571 100.814 159.517 101.32 159.517 101.854ZM164.438 110.713C164.315 110.836 164.138 110.966 163.905 111.103C163.673 111.239 163.406 111.369 163.105 111.492C162.805 111.602 162.47 111.697 162.101 111.779C161.731 111.848 161.349 111.882 160.952 111.882C160.146 111.882 159.325 111.813 158.491 111.677C157.671 111.526 156.878 111.294 156.112 110.979C155.347 110.651 154.622 110.234 153.938 109.729C153.269 109.223 152.681 108.607 152.175 107.883C151.683 107.145 151.293 106.29 151.006 105.319C150.719 104.349 150.575 103.248 150.575 102.018C150.575 100.213 150.855 98.6201 151.416 97.2393C151.977 95.8584 152.756 94.7031 153.754 93.7734C154.766 92.8438 155.962 92.1465 157.343 91.6816C158.737 91.2031 160.262 90.9639 161.916 90.9639C163.666 90.9639 165.238 91.2578 166.633 91.8457C168.027 92.4199 169.21 93.2881 170.181 94.4502C171.165 95.6123 171.917 97.0615 172.437 98.7979C172.956 100.534 173.216 102.558 173.216 104.868C173.216 106.194 173.154 107.555 173.031 108.949C172.922 110.344 172.703 111.711 172.375 113.051C172.047 114.377 171.582 115.635 170.98 116.824C170.393 118 169.613 119.032 168.643 119.921C167.686 120.796 166.523 121.493 165.156 122.013C163.789 122.532 162.162 122.792 160.275 122.792C159.182 122.792 158.136 122.648 157.138 122.361C156.14 122.074 155.258 121.678 154.492 121.172C153.74 120.652 153.139 120.037 152.688 119.326C152.236 118.602 152.011 117.802 152.011 116.927C152.011 116.271 152.147 115.655 152.421 115.081C152.694 114.507 153.057 114.015 153.508 113.604C153.973 113.181 154.499 112.853 155.087 112.62C155.675 112.374 156.283 112.251 156.912 112.251C157.719 112.251 158.498 112.463 159.25 112.887C160.002 113.311 160.665 114.001 161.239 114.958C160.925 114.89 160.645 114.855 160.398 114.855C160.125 114.855 159.92 114.944 159.783 115.122C159.66 115.3 159.599 115.491 159.599 115.696C159.599 115.915 159.708 116.127 159.927 116.332C160.146 116.523 160.487 116.619 160.952 116.619C161.69 116.619 162.285 116.435 162.736 116.065C163.201 115.696 163.557 115.225 163.803 114.65C164.062 114.076 164.233 113.44 164.315 112.743C164.397 112.046 164.438 111.369 164.438 110.713ZM199.507 122.218C198.577 122.149 197.723 122.102 196.943 122.074C196.164 122.061 195.433 122.054 194.749 122.054C193.505 122.054 192.452 122.088 191.591 122.156C190.743 122.225 190.053 122.3 189.52 122.382C188.891 122.478 188.385 122.587 188.002 122.71C188.057 122.286 188.111 121.883 188.166 121.5C188.221 121.104 188.262 120.714 188.289 120.331C188.33 119.948 188.357 119.565 188.371 119.183C188.398 118.8 188.412 118.396 188.412 117.973C188.412 116.455 188.351 115.19 188.228 114.179C188.118 113.153 187.954 112.306 187.735 111.636C187.517 110.966 187.25 110.419 186.936 109.995C186.621 109.571 186.272 109.195 185.89 108.867C185.862 109.482 185.842 110.077 185.828 110.651C185.814 111.226 185.808 111.834 185.808 112.477C185.808 113.119 185.821 113.782 185.849 114.466C185.876 115.149 185.924 115.881 185.992 116.66C186.061 117.426 186.163 118.246 186.3 119.121C186.437 119.982 186.607 120.912 186.812 121.91C186.293 121.869 185.712 121.821 185.069 121.767C184.522 121.739 183.873 121.705 183.121 121.664C182.369 121.637 181.542 121.623 180.64 121.623C179.737 121.623 178.78 121.644 177.769 121.685C176.757 121.726 175.697 121.801 174.59 121.91C174.918 121.5 175.212 120.967 175.472 120.311C175.745 119.654 175.984 118.937 176.189 118.157C176.395 117.364 176.565 116.537 176.702 115.676C176.853 114.814 176.982 113.967 177.092 113.133C177.338 111.178 177.502 109.093 177.584 106.878C177.584 105.716 177.57 104.52 177.543 103.289C177.516 102.059 177.447 100.835 177.338 99.6182C177.229 98.3877 177.064 97.1777 176.846 95.9883C176.641 94.7988 176.354 93.6709 175.984 92.6045C176.559 92.6455 177.126 92.6865 177.687 92.7275C178.247 92.7549 178.814 92.7686 179.389 92.7686C182.082 92.7686 184.728 92.4883 187.325 91.9277C186.724 93.7051 186.293 95.4688 186.033 97.2188C185.773 98.9551 185.644 100.691 185.644 102.428C185.644 102.852 185.644 103.275 185.644 103.699C185.657 104.109 185.685 104.526 185.726 104.95C186.888 103.474 187.776 102.024 188.392 100.603C189.021 99.1807 189.335 97.7861 189.335 96.4189C189.335 95.7217 189.253 95.0449 189.089 94.3887C188.938 93.7188 188.686 93.0557 188.33 92.3994C189.014 92.4678 189.69 92.5225 190.36 92.5635C191.044 92.5908 191.728 92.6045 192.411 92.6045C193.587 92.6045 194.763 92.5498 195.938 92.4404C197.114 92.3311 198.304 92.1602 199.507 91.9277C199.274 92.2832 199.062 92.666 198.871 93.0762C198.68 93.4727 198.502 93.8896 198.338 94.3271C198.188 94.751 198.044 95.1816 197.907 95.6191C197.784 96.0566 197.675 96.4736 197.579 96.8701C197.347 97.8135 197.162 98.7705 197.025 99.7412C196.875 100.698 196.622 101.607 196.267 102.469C196.116 102.838 195.932 103.221 195.713 103.617C195.494 104 195.241 104.376 194.954 104.745C194.667 105.101 194.339 105.442 193.97 105.771C193.614 106.085 193.204 106.358 192.739 106.591C193.696 106.987 194.428 107.479 194.934 108.067C195.453 108.655 195.843 109.325 196.103 110.077C196.362 110.815 196.547 111.629 196.656 112.518C196.766 113.393 196.902 114.315 197.066 115.286C197.217 116.106 197.408 116.927 197.641 117.747C197.832 118.444 198.078 119.196 198.379 120.003C198.693 120.81 199.069 121.548 199.507 122.218Z" fill="#4D247E"/>
<line x1="218" y1="160" x2="218" y2="31" stroke="#0C0C0C" stroke-width="2"/>
<path d="M240.5 158.9L229.24 158.9L229.24 154.44C229.24 154.027 229.267 153.573 229.32 153.08C229.373 152.573 229.493 152.087 229.68 151.62C229.867 151.153 230.16 150.773 230.56 150.48C230.96 150.173 231.513 150.02 232.22 150.02C232.647 150.02 233.04 150.107 233.4 150.28C233.76 150.44 234.06 150.747 234.3 151.2C234.527 151.64 234.66 152.273 234.7 153.1L234.76 153.1C234.787 152.14 234.927 151.4 235.18 150.88C235.42 150.36 235.74 150 236.14 149.8C236.54 149.6 236.987 149.5 237.48 149.5C238.2 149.5 238.767 149.66 239.18 149.98C239.58 150.3 239.88 150.713 240.08 151.22C240.267 151.727 240.387 152.26 240.44 152.82C240.48 153.367 240.5 153.873 240.5 154.34L240.5 158.9ZM233.92 156.9L233.92 154.68C233.92 154.213 233.893 153.78 233.84 153.38C233.787 152.967 233.66 152.64 233.46 152.4C233.247 152.16 232.907 152.04 232.44 152.04C231.947 152.04 231.593 152.167 231.38 152.42C231.167 152.66 231.033 152.98 230.98 153.38C230.927 153.78 230.9 154.213 230.9 154.68L230.9 156.9L233.92 156.9ZM238.86 156.88L238.86 154.5C238.86 153.98 238.827 153.5 238.76 153.06C238.693 152.62 238.547 152.267 238.32 152C238.08 151.733 237.707 151.6 237.2 151.6C236.68 151.6 236.3 151.74 236.06 152.02C235.807 152.3 235.647 152.667 235.58 153.12C235.513 153.573 235.48 154.073 235.48 154.62L235.48 156.88L238.86 156.88ZM240.78 142.849C240.78 144.449 240.34 145.669 239.46 146.509C238.567 147.335 237.313 147.749 235.7 147.749L229.24 147.749L229.24 145.569L235.68 145.569C236.507 145.569 237.147 145.435 237.6 145.169C238.053 144.902 238.373 144.562 238.56 144.149C238.747 143.735 238.84 143.302 238.84 142.849C238.84 142.342 238.753 141.882 238.58 141.469C238.393 141.055 238.073 140.729 237.62 140.489C237.167 140.235 236.52 140.109 235.68 140.109L229.24 140.109L229.24 137.949L235.7 137.949C237.34 137.949 238.6 138.362 239.48 139.189C240.347 140.002 240.78 141.222 240.78 142.849ZM240.5 132.537L236.52 132.537L229.24 136.377L229.24 134.097L234.74 131.477L229.24 128.897L229.24 126.617L236.5 130.517L240.5 130.517L240.5 132.537ZM231 122.456L229.24 122.456L229.24 113.756L231 113.756L231 117.096L240.5 117.096L240.5 119.136L231 119.136L231 122.456ZM238.76 107.139L240.5 107.139L240.5 112.159L238.76 112.159L238.76 110.639L231 110.639L231 112.159L229.24 112.159L229.24 107.139L231 107.139L231 108.619L238.76 108.619L238.76 107.139ZM240.7 99.7808C240.7 100.834 240.487 101.787 240.06 102.641C239.62 103.494 238.973 104.174 238.12 104.681C237.267 105.174 236.2 105.421 234.92 105.421C233.667 105.407 232.6 105.154 231.72 104.661C230.84 104.167 230.173 103.494 229.72 102.641C229.267 101.787 229.04 100.814 229.04 99.7208C229.04 98.6808 229.227 97.7941 229.6 97.0608C229.973 96.3274 230.48 95.7408 231.12 95.3008C231.76 94.8474 232.48 94.5541 233.28 94.4208L233.28 96.5208C232.693 96.6141 232.233 96.8341 231.9 97.1808C231.553 97.5141 231.313 97.9074 231.18 98.3608C231.033 98.8141 230.96 99.2674 230.96 99.7208C230.96 100.907 231.293 101.821 231.96 102.461C232.627 103.087 233.567 103.401 234.78 103.401C236.073 103.401 237.067 103.094 237.76 102.481C238.453 101.854 238.8 100.947 238.8 99.7608C238.8 99.2674 238.727 98.7874 238.58 98.3208C238.42 97.8541 238.167 97.4541 237.82 97.1208C237.46 96.7874 236.98 96.5741 236.38 96.4808L236.38 94.3608C237.207 94.5074 237.947 94.8074 238.6 95.2608C239.24 95.7008 239.753 96.3008 240.14 97.0608C240.513 97.8074 240.7 98.7141 240.7 99.7808ZM240.5 92.4695L229.24 92.4695L229.24 90.4295L234.56 90.4295L229.24 85.4495L229.24 82.7895L229.48 82.7895L233.78 87.2495L240.26 82.5495L240.5 82.5495L240.5 84.8895L235.2 88.7295L236.84 90.4295L240.5 90.4295L240.5 92.4695ZM238.86 79.127L238.86 72.907L240.5 72.907L240.5 81.147L229.24 81.147L229.24 73.107L231 73.107L231 79.127L233.96 79.127L233.96 74.507L235.64 74.507L235.64 79.127L238.86 79.127ZM231 71.9875L229.24 71.9875L229.24 63.2875L231 63.2875L231 66.6275L240.5 66.6275L240.5 68.6675L231 68.6675L231 71.9875ZM240.72 57.3706C240.72 57.984 240.647 58.5906 240.5 59.1906C240.353 59.7773 240.127 60.3106 239.82 60.7906C239.513 61.2706 239.113 61.6506 238.62 61.9306C238.113 62.2106 237.507 62.3573 236.8 62.3706L236.8 60.3106C236.867 60.3106 237.013 60.284 237.24 60.2306C237.453 60.1773 237.687 60.0573 237.94 59.8706C238.193 59.6706 238.413 59.364 238.6 58.9506C238.787 58.524 238.88 57.9506 238.88 57.2306C238.88 56.444 238.733 55.864 238.44 55.4906C238.147 55.104 237.833 54.9106 237.5 54.9106C237.127 54.9106 236.833 55.044 236.62 55.3106C236.393 55.564 236.213 55.9106 236.08 56.3506C235.933 56.7773 235.8 57.2506 235.68 57.7706C235.56 58.2773 235.427 58.7906 235.28 59.3106C235.12 59.8173 234.913 60.284 234.66 60.7106C234.393 61.124 234.053 61.4506 233.64 61.6906C233.227 61.9306 232.7 62.0373 232.06 62.0106C231.113 61.944 230.373 61.4906 229.84 60.6506C229.307 59.8106 229.04 58.6973 229.04 57.3106C229.04 56.5106 229.187 55.7706 229.48 55.0906C229.76 54.3973 230.187 53.844 230.76 53.4306C231.32 53.004 232.04 52.7906 232.92 52.7906L232.92 54.7706C232.507 54.7706 232.173 54.864 231.92 55.0506C231.653 55.2373 231.453 55.4773 231.32 55.7706C231.173 56.0506 231.08 56.3506 231.04 56.6706C230.987 56.9906 230.96 57.2773 230.96 57.5306C230.96 58.1973 231.073 58.7506 231.3 59.1906C231.527 59.6173 231.86 59.8306 232.3 59.8306C232.673 59.844 232.973 59.7173 233.2 59.4506C233.427 59.184 233.607 58.8306 233.74 58.3906C233.873 57.9506 233.993 57.4706 234.1 56.9506C234.207 56.4306 234.34 55.9106 234.5 55.3906C234.647 54.8706 234.847 54.3973 235.1 53.9706C235.34 53.544 235.673 53.2106 236.1 52.9706C236.513 52.7306 237.053 52.6306 237.72 52.6706C238.667 52.724 239.407 53.184 239.94 54.0506C240.46 54.9173 240.72 56.024 240.72 57.3706Z" fill="#0C0C0C"/>
<path d="M240.334 38.9997L239.4 39.9497L235.667 36.2163L235.667 44.333L234.334 44.333L234.334 36.2163L230.6 39.9497L229.667 38.9997L235 33.6663L240.334 38.9997Z" fill="#0C0C0C"/>
<rect x="27" y="165" width="139" height="223" rx="13" transform="rotate(-90 27 165)" stroke="#0C0C0C" stroke-width="2"/>
</svg>
