<svg width="276" height="190" viewBox="0 0 276 190" fill="none" xmlns="http://www.w3.org/2000/svg">
<path fill-rule="evenodd" clip-rule="evenodd" d="M12.3866 94.8306C12.3866 89.0942 7.73638 84.4439 2 84.4439L2.00003 72.7592L2.00015 72.7592C4.86834 72.7592 7.19347 70.434 7.19347 67.5658C7.19347 64.6977 4.86834 62.3725 2.00015 62.3725L2.00003 62.3725L2.00003 50.6875L2.00015 50.6875C4.86834 50.6875 7.19347 48.3624 7.19347 45.4942C7.19347 42.626 4.86834 40.3009 2.00015 40.3009L2.00002 40.3009L2.00002 28.6159L2.00012 28.6159C16.8411 28.6159 28.9126 16.7583 29.2575 2.00027L246.743 2.00026C247.088 16.7583 259.159 28.6159 274 28.6159L274 40.3009C271.132 40.3009 268.807 42.626 268.807 45.4942C268.807 48.3624 271.132 50.6875 274 50.6875L274 62.3725C271.132 62.3725 268.807 64.6977 268.807 67.5658C268.807 70.434 271.132 72.7592 274 72.7592L274 84.4439C268.264 84.4439 263.614 89.0942 263.614 94.8306C263.614 100.567 268.264 105.217 274 105.217L274 116.902C271.132 116.902 268.807 119.227 268.807 122.096C268.807 124.964 271.132 127.289 274 127.289L274 138.974C271.132 138.974 268.807 141.299 268.807 144.167C268.807 147.035 271.132 149.36 274 149.36L274 161.046C258.942 161.046 246.735 173.252 246.735 188.31L246.735 188.311L29.265 188.311L29.265 188.31C29.265 173.252 17.0581 161.046 2.00012 161.046L2.00003 161.046L2.00003 149.36L2.00015 149.36C4.86834 149.36 7.19347 147.035 7.19347 144.167C7.19347 141.299 4.86834 138.974 2.00015 138.974L2.00003 138.974L2.00003 127.289L2.00015 127.289C4.86834 127.289 7.19347 124.964 7.19347 122.096C7.19347 119.227 4.86834 116.902 2.00015 116.902L2.00003 116.902L2 105.217C7.73638 105.217 12.3866 100.567 12.3866 94.8306Z" fill="#F86041"/>
<path d="M2 84.4439L0.701666 84.4439L0.701663 85.7422L2 85.7422L2 84.4439ZM2.00003 72.7592L2.00003 71.4608L0.7017 71.4608L0.701697 72.7592L2.00003 72.7592ZM2.00015 72.7592L2.00015 74.0575L2.00015 72.7592ZM2.00015 62.3725L2.00015 63.6709L2.00015 62.3725ZM2.00003 62.3725L0.701696 62.3725L0.701696 63.6709L2.00003 63.6709L2.00003 62.3725ZM2.00003 50.6875L2.00002 49.3892L0.701696 49.3892L0.701696 50.6875L2.00003 50.6875ZM2.00015 50.6875L2.00015 51.9859L2.00015 50.6875ZM2.00015 40.3009L2.00015 41.5992L2.00015 40.3009ZM2.00002 40.3009L0.701695 40.3009L0.701695 41.5992L2.00002 41.5992L2.00002 40.3009ZM2.00002 28.6159L2.00002 27.3176L0.701695 27.3176L0.701695 28.6159L2.00002 28.6159ZM2.00012 28.6159L2.00012 29.9142L2.00012 28.6159ZM29.2575 2.00027L29.2575 0.701944L27.9891 0.701944L27.9595 1.96994L29.2575 2.00027ZM246.743 2.00026L248.041 1.96993L248.011 0.701935L246.743 0.701935L246.743 2.00026ZM274 28.6159L275.298 28.6159L275.298 27.3176L274 27.3176L274 28.6159ZM274 40.3009L274 41.5992L275.299 41.5992L275.299 40.3009L274 40.3009ZM274 50.6875L275.299 50.6875L275.299 49.3892L274 49.3892L274 50.6875ZM274 62.3725L274 63.6709L275.299 63.6709L275.299 62.3725L274 62.3725ZM274 72.7592L275.299 72.7592L275.298 71.4608L274 71.4608L274 72.7592ZM274 84.4439L274 85.7422L275.299 85.7422L275.299 84.4439L274 84.4439ZM274 105.217L275.299 105.217L275.299 103.919L274 103.919L274 105.217ZM274 116.902L274 118.201L275.298 118.201L275.299 116.902L274 116.902ZM274 127.289L275.299 127.289L275.299 125.99L274 125.991L274 127.289ZM274 138.974L274 140.272L275.299 140.272L275.299 138.974L274 138.974ZM274 149.36L275.299 149.36L275.299 148.062L274 148.062L274 149.36ZM274 161.046L274 162.344L275.298 162.344L275.298 161.046L274 161.046ZM246.735 188.311L246.735 189.609L248.034 189.609L248.034 188.311L246.735 188.311ZM29.265 188.311L27.9667 188.311L27.9667 189.609L29.265 189.609L29.265 188.311ZM2.00012 161.046L2.00012 159.747L2.00012 161.046ZM2.00003 161.046L0.701701 161.046L0.701701 162.344L2.00003 162.344L2.00003 161.046ZM2.00003 149.36L2.00003 148.062L0.7017 148.062L0.7017 149.36L2.00003 149.36ZM2.00015 149.36L2.00015 148.062L2.00015 149.36ZM2.00003 138.974L0.7017 138.974L0.7017 140.272L2.00003 140.272L2.00003 138.974ZM2.00003 127.289L2.00003 125.991L0.701699 125.991L0.701699 127.289L2.00003 127.289ZM2.00015 116.902L2.00015 118.201L2.00015 116.902ZM2.00003 116.902L0.701699 116.902L0.701702 118.201L2.00003 118.201L2.00003 116.902ZM2 105.217L2 103.919L0.701664 103.919L0.701667 105.217L2 105.217ZM2 85.7422C7.01933 85.7422 11.0883 89.8112 11.0883 94.8306L13.685 94.8306C13.685 88.3771 8.45342 83.1456 2 83.1456L2 85.7422ZM0.701697 72.7592L0.701666 84.4439L3.29832 84.4439L3.29836 72.7592L0.701697 72.7592ZM2.00015 71.4608L2.00003 71.4608L2.00003 74.0575L2.00015 74.0575L2.00015 71.4608ZM5.89514 67.5658C5.89514 69.717 4.1513 71.4608 2.00015 71.4608L2.00015 74.0575C5.58539 74.0575 8.4918 71.1511 8.4918 67.5658L5.89514 67.5658ZM2.00015 63.6709C4.1513 63.6709 5.89514 65.4147 5.89514 67.5658L8.4918 67.5658C8.4918 63.9806 5.58539 61.0742 2.00015 61.0742L2.00015 63.6709ZM2.00003 63.6709L2.00015 63.6709L2.00015 61.0742L2.00003 61.0742L2.00003 63.6709ZM0.701696 50.6875L0.701696 62.3725L3.29835 62.3725L3.29835 50.6875L0.701696 50.6875ZM2.00015 49.3892L2.00002 49.3892L2.00003 51.9859L2.00015 51.9859L2.00015 49.3892ZM5.89514 45.4942C5.89514 47.6453 4.1513 49.3892 2.00015 49.3892L2.00015 51.9859C5.58539 51.9859 8.4918 49.0794 8.4918 45.4942L5.89514 45.4942ZM2.00015 41.5992C4.1513 41.5992 5.89514 43.3431 5.89514 45.4942L8.4918 45.4942C8.4918 41.909 5.58539 39.0026 2.00015 39.0026L2.00015 41.5992ZM2.00002 41.5992L2.00015 41.5992L2.00015 39.0026L2.00002 39.0026L2.00002 41.5992ZM0.701695 28.6159L0.701695 40.3009L3.29835 40.3009L3.29835 28.6159L0.701695 28.6159ZM2.00012 27.3176L2.00002 27.3176L2.00002 29.9142L2.00012 29.9142L2.00012 27.3176ZM27.9595 1.96994C27.631 16.0246 16.1342 27.3176 2.00012 27.3176L2.00012 29.9142C17.548 29.9142 30.1941 17.492 30.5554 2.03061L27.9595 1.96994ZM246.743 0.701935L29.2575 0.701944L29.2575 3.2986L246.743 3.29859L246.743 0.701935ZM274 27.3176C259.866 27.3176 248.369 16.0246 248.041 1.96993L245.445 2.0306C245.806 17.492 258.452 29.9142 274 29.9142L274 27.3176ZM275.299 40.3009L275.298 28.6159L272.702 28.6159L272.702 40.3009L275.299 40.3009ZM270.105 45.4942C270.105 43.3431 271.849 41.5992 274 41.5992L274 39.0026C270.415 39.0026 267.509 41.909 267.509 45.4942L270.105 45.4942ZM274 49.3892C271.849 49.3892 270.105 47.6453 270.105 45.4942L267.509 45.4942C267.509 49.0794 270.415 51.9859 274 51.9859L274 49.3892ZM275.299 62.3725L275.299 50.6875L272.702 50.6875L272.702 62.3725L275.299 62.3725ZM270.105 67.5658C270.105 65.4147 271.849 63.6709 274 63.6709L274 61.0742C270.415 61.0742 267.509 63.9806 267.509 67.5658L270.105 67.5658ZM274 71.4608C271.849 71.4608 270.105 69.717 270.105 67.5658L267.509 67.5658C267.509 71.1511 270.415 74.0575 274 74.0575L274 71.4608ZM275.299 84.4439L275.299 72.7592L272.702 72.7592L272.702 84.4439L275.299 84.4439ZM264.912 94.8306C264.912 89.8112 268.981 85.7422 274 85.7422L274 83.1456C267.547 83.1456 262.315 88.3771 262.315 94.8306L264.912 94.8306ZM274 103.919C268.981 103.919 264.912 99.8499 264.912 94.8306L262.315 94.8306C262.315 101.284 267.547 106.516 274 106.516L274 103.919ZM275.299 116.902L275.299 105.217L272.702 105.217L272.702 116.902L275.299 116.902ZM270.105 122.096C270.105 119.944 271.849 118.201 274 118.201L274 115.604C270.415 115.604 267.509 118.51 267.509 122.096L270.105 122.096ZM274 125.991C271.849 125.991 270.105 124.247 270.105 122.096L267.509 122.096C267.509 125.681 270.415 128.587 274 128.587L274 125.991ZM275.299 138.974L275.299 127.289L272.702 127.289L272.702 138.974L275.299 138.974ZM270.105 144.167C270.105 142.016 271.849 140.272 274 140.272L274 137.676C270.415 137.676 267.509 140.582 267.509 144.167L270.105 144.167ZM274 148.062C271.849 148.062 270.105 146.318 270.105 144.167L267.509 144.167C267.509 147.752 270.415 150.659 274 150.659L274 148.062ZM275.298 161.046L275.299 149.36L272.702 149.36L272.702 161.046L275.298 161.046ZM248.034 188.31C248.034 173.97 259.659 162.344 274 162.344L274 159.747C258.225 159.747 245.437 172.535 245.437 188.31L248.034 188.31ZM248.034 188.311L248.034 188.31L245.437 188.31L245.437 188.311L248.034 188.311ZM29.265 189.609L246.735 189.609L246.735 187.012L29.265 187.012L29.265 189.609ZM27.9667 188.31L27.9667 188.311L30.5634 188.311L30.5634 188.31L27.9667 188.31ZM2.00012 162.344C16.3411 162.344 27.9667 173.97 27.9667 188.31L30.5634 188.31C30.5634 172.535 17.7752 159.747 2.00012 159.747L2.00012 162.344ZM2.00003 162.344L2.00012 162.344L2.00012 159.747L2.00003 159.747L2.00003 162.344ZM0.7017 149.36L0.701701 161.046L3.29836 161.046L3.29836 149.36L0.7017 149.36ZM2.00015 148.062L2.00003 148.062L2.00003 150.659L2.00015 150.659L2.00015 148.062ZM5.89514 144.167C5.89514 146.318 4.1513 148.062 2.00015 148.062L2.00015 150.659C5.58539 150.659 8.4918 147.752 8.4918 144.167L5.89514 144.167ZM2.00015 140.272C4.1513 140.272 5.89514 142.016 5.89514 144.167L8.4918 144.167C8.4918 140.582 5.58539 137.676 2.00015 137.676L2.00015 140.272ZM2.00003 140.272L2.00015 140.272L2.00015 137.676L2.00003 137.676L2.00003 140.272ZM0.701699 127.289L0.7017 138.974L3.29836 138.974L3.29836 127.289L0.701699 127.289ZM2.00015 125.991L2.00003 125.991L2.00003 128.587L2.00015 128.587L2.00015 125.991ZM5.89514 122.096C5.89514 124.247 4.1513 125.991 2.00015 125.991L2.00015 128.587C5.58539 128.587 8.4918 125.681 8.4918 122.096L5.89514 122.096ZM2.00015 118.201C4.1513 118.201 5.89514 119.944 5.89514 122.096L8.4918 122.096C8.4918 118.51 5.58539 115.604 2.00015 115.604L2.00015 118.201ZM2.00003 118.201L2.00015 118.201L2.00015 115.604L2.00003 115.604L2.00003 118.201ZM0.701667 105.217L0.701699 116.902L3.29836 116.902L3.29833 105.217L0.701667 105.217ZM11.0883 94.8306C11.0883 99.8499 7.01933 103.919 2 103.919L2 106.516C8.45342 106.516 13.685 101.284 13.685 94.8306L11.0883 94.8306Z" fill="#0C0C0C"/>
<rect x="27" y="165" width="139" height="223" rx="13" transform="rotate(-90 27 165)" fill="#F8F8F8"/>
<path d="M45 141.16L43.3 141.16C43.3 141.16 43.2133 140.993 43.04 140.66C42.8533 140.313 42.6067 139.88 42.3 139.36C41.98 138.84 41.62 138.293 41.22 137.72C40.8067 137.147 40.3667 136.62 39.9 136.14C39.42 135.66 38.9267 135.293 38.42 135.04C37.8067 134.733 37.2667 134.64 36.8 134.76C36.3333 134.867 35.9733 135.113 35.72 135.5C35.4533 135.887 35.32 136.347 35.32 136.88C35.32 137.6 35.56 138.173 36.04 138.6C36.52 139.027 37.26 139.173 38.26 139.04L38 140.94C37.08 141.033 36.2933 140.907 35.64 140.56C34.9867 140.2 34.4867 139.68 34.14 139C33.78 138.32 33.6 137.54 33.6 136.66C33.6 135.94 33.7333 135.293 34 134.72C34.2667 134.147 34.6333 133.687 35.1 133.34C35.5667 132.98 36.1 132.773 36.7 132.72C37.3 132.667 37.94 132.807 38.62 133.14C39.1267 133.393 39.6133 133.747 40.08 134.2C40.5333 134.64 40.9467 135.12 41.32 135.64C41.6933 136.147 42.02 136.647 42.3 137.14C42.5667 137.62 42.7867 138.04 42.96 138.4C43.12 138.76 43.2133 139 43.24 139.12L43.24 132.52L45 132.52L45 141.16ZM39.36 115.873C40.84 115.873 41.9933 116.167 42.82 116.753C43.6333 117.327 44.2 118.14 44.52 119.193C44.84 120.247 45 121.487 45 122.913L45 126.013L33.74 126.013L33.74 122.913C33.74 121.487 33.9533 120.247 34.38 119.193C34.7933 118.14 35.4133 117.327 36.24 116.753C37.0667 116.167 38.1067 115.873 39.36 115.873ZM43.32 123.993L43.32 122.333C43.32 121.453 43.22 120.693 43.02 120.053C42.8067 119.413 42.4133 118.92 41.84 118.573C41.2667 118.227 40.4333 118.053 39.34 118.053C38.0467 118.053 37.0867 118.44 36.46 119.213C35.82 119.973 35.5 121.013 35.5 122.333L35.5 123.993L43.32 123.993ZM45.2 111.585C45.2 112.718 44.8133 113.525 44.04 114.005C43.2667 114.485 42.2533 114.725 41 114.725C39.7333 114.725 38.7133 114.485 37.94 114.005C37.1533 113.511 36.76 112.705 36.76 111.585C36.76 110.945 36.8733 110.438 37.1 110.065C37.3133 109.691 37.5533 109.411 37.82 109.225C38.0867 109.038 38.2867 108.925 38.42 108.885L38.42 108.845L36.78 108.845L36.78 106.745L45 106.745L45 108.505L43.66 108.845L43.66 108.885C43.78 108.925 43.9667 109.045 44.22 109.245C44.46 109.431 44.6867 109.718 44.9 110.105C45.1 110.478 45.2 110.971 45.2 111.585ZM43.48 110.745C43.48 109.998 43.2467 109.498 42.78 109.245C42.3 108.978 41.7133 108.845 41.02 108.845C40.2867 108.845 39.6933 108.978 39.24 109.245C38.7867 109.511 38.56 110.011 38.56 110.745C38.56 111.265 38.6733 111.671 38.9 111.965C39.1267 112.245 39.4267 112.445 39.8 112.565C40.16 112.671 40.5667 112.725 41.02 112.725C41.4733 112.725 41.8867 112.671 42.26 112.565C42.6333 112.445 42.9333 112.245 43.16 111.965C43.3733 111.671 43.48 111.265 43.48 110.745ZM48.82 106.122L47.24 106.122L47.24 104.862C47.24 104.662 47.22 104.489 47.18 104.342C47.14 104.195 47.0333 104.049 46.86 103.902C46.7 103.755 46.4333 103.589 46.06 103.402L44.86 102.862L36.78 106.062L36.78 103.962L42.76 101.862L36.78 99.602L36.78 97.502L46.26 101.542C47.0067 101.862 47.56 102.155 47.92 102.422C48.2933 102.689 48.5333 102.989 48.64 103.322C48.76 103.642 48.82 104.055 48.82 104.562L48.82 106.122ZM45.2 93.093C45.2 93.4396 45.14 93.8263 45.02 94.253C44.9 94.6663 44.72 95.0663 44.48 95.453C44.24 95.8263 43.9333 96.1396 43.56 96.393C43.1733 96.633 42.72 96.753 42.2 96.753L42.2 94.873C42.2267 94.873 42.32 94.8663 42.48 94.853C42.6267 94.8396 42.8 94.7863 43 94.693C43.1867 94.5863 43.3533 94.413 43.5 94.173C43.6467 93.933 43.72 93.5863 43.72 93.133C43.72 92.5996 43.6267 92.1996 43.44 91.933C43.24 91.6663 43.0133 91.533 42.76 91.533C42.4667 91.533 42.24 91.6596 42.08 91.913C41.9067 92.153 41.7667 92.4663 41.66 92.853C41.5533 93.2396 41.4467 93.653 41.34 94.093C41.22 94.5196 41.0667 94.9263 40.88 95.313C40.6933 95.6863 40.44 95.993 40.12 96.233C39.7867 96.473 39.36 96.593 38.84 96.593C38.08 96.593 37.5067 96.2863 37.12 95.673C36.72 95.0596 36.52 94.2796 36.52 93.333C36.52 92.6663 36.6267 92.0463 36.84 91.473C37.04 90.8996 37.3667 90.4396 37.82 90.093C38.26 89.7463 38.84 89.573 39.56 89.573L39.56 91.453C39.1467 91.4396 38.84 91.533 38.64 91.733C38.4267 91.9196 38.28 92.1596 38.2 92.453C38.12 92.733 38.08 93.0063 38.08 93.273C38.08 93.753 38.1667 94.1196 38.34 94.373C38.5 94.613 38.7133 94.733 38.98 94.733C39.2867 94.733 39.5267 94.613 39.7 94.373C39.86 94.1196 39.9933 93.7996 40.1 93.413C40.2067 93.013 40.32 92.5996 40.44 92.173C40.5467 91.733 40.6933 91.3196 40.88 90.933C41.0667 90.533 41.32 90.213 41.64 89.973C41.9467 89.7196 42.36 89.593 42.88 89.593C43.6667 89.593 44.2533 89.9196 44.64 90.573C45.0133 91.213 45.2 92.053 45.2 93.093ZM45 81.4567L45 83.4967L33.74 83.4967L33.74 78.9767C33.74 77.7234 34.0533 76.7501 34.68 76.0567C35.3067 75.3634 36.2533 75.0167 37.52 75.0167C38.6267 75.0167 39.4933 75.3767 40.12 76.0967C40.7467 76.8034 41.06 77.7634 41.06 78.9767L41.06 81.4567L45 81.4567ZM35.4 79.2567L35.4 81.4567L39.56 81.4567L39.56 79.2567C39.56 78.5367 39.3867 77.9567 39.04 77.5167C38.6933 77.0767 38.1733 76.8567 37.48 76.8567C36.7733 76.8567 36.2533 77.0767 35.92 77.5167C35.5733 77.9434 35.4 78.5234 35.4 79.2567ZM45.2 71.1158C45.2 72.2491 44.8133 73.0558 44.04 73.5358C43.2667 74.0158 42.2533 74.2558 41 74.2558C39.7333 74.2558 38.7133 74.0158 37.94 73.5358C37.1533 73.0424 36.76 72.2358 36.76 71.1158C36.76 70.4758 36.8733 69.9691 37.1 69.5958C37.3133 69.2224 37.5533 68.9424 37.82 68.7558C38.0867 68.5691 38.2867 68.4558 38.42 68.4158L38.42 68.3758L36.78 68.3758L36.78 66.2758L45 66.2758L45 68.0358L43.66 68.3758L43.66 68.4158C43.78 68.4558 43.9667 68.5758 44.22 68.7758C44.46 68.9624 44.6867 69.2491 44.9 69.6358C45.1 70.0091 45.2 70.5024 45.2 71.1158ZM43.48 70.2758C43.48 69.5291 43.2467 69.0291 42.78 68.7758C42.3 68.5091 41.7133 68.3758 41.02 68.3758C40.2867 68.3758 39.6933 68.5091 39.24 68.7758C38.7867 69.0424 38.56 69.5424 38.56 70.2758C38.56 70.7958 38.6733 71.2024 38.9 71.4958C39.1267 71.7758 39.4267 71.9758 39.8 72.0958C40.16 72.2024 40.5667 72.2558 41.02 72.2558C41.4733 72.2558 41.8867 72.2024 42.26 72.0958C42.6333 71.9758 42.9333 71.7758 43.16 71.4958C43.3733 71.2024 43.48 70.7958 43.48 70.2758ZM45.2 61.4133C45.2 61.7599 45.14 62.1466 45.02 62.5733C44.9 62.9866 44.72 63.3866 44.48 63.7733C44.24 64.1466 43.9333 64.4599 43.56 64.7133C43.1733 64.9533 42.72 65.0733 42.2 65.0733L42.2 63.1933C42.2267 63.1933 42.32 63.1866 42.48 63.1733C42.6267 63.1599 42.8 63.1066 43 63.0133C43.1867 62.9066 43.3533 62.7333 43.5 62.4933C43.6467 62.2533 43.72 61.9066 43.72 61.4533C43.72 60.9199 43.6267 60.5199 43.44 60.2533C43.24 59.9866 43.0133 59.8533 42.76 59.8533C42.4667 59.8533 42.24 59.9799 42.08 60.2333C41.9067 60.4733 41.7667 60.7866 41.66 61.1733C41.5533 61.5599 41.4467 61.9733 41.34 62.4133C41.22 62.8399 41.0667 63.2466 40.88 63.6333C40.6933 64.0066 40.44 64.3133 40.12 64.5533C39.7867 64.7933 39.36 64.9133 38.84 64.9133C38.08 64.9133 37.5067 64.6066 37.12 63.9933C36.72 63.3799 36.52 62.5999 36.52 61.6533C36.52 60.9866 36.6267 60.3666 36.84 59.7933C37.04 59.2199 37.3667 58.7599 37.82 58.4133C38.26 58.0666 38.84 57.8933 39.56 57.8933L39.56 59.7733C39.1467 59.7599 38.84 59.8533 38.64 60.0533C38.4267 60.2399 38.28 60.4799 38.2 60.7733C38.12 61.0533 38.08 61.3266 38.08 61.5933C38.08 62.0733 38.1667 62.4399 38.34 62.6933C38.5 62.9333 38.7133 63.0533 38.98 63.0533C39.2867 63.0533 39.5267 62.9333 39.7 62.6933C39.86 62.4399 39.9933 62.1199 40.1 61.7333C40.2067 61.3333 40.32 60.9199 40.44 60.4933C40.5467 60.0533 40.6933 59.6399 40.88 59.2533C41.0667 58.8533 41.32 58.5333 41.64 58.2933C41.9467 58.0399 42.36 57.9133 42.88 57.9133C43.6667 57.9133 44.2533 58.2399 44.64 58.8933C45.0133 59.5333 45.2 60.3733 45.2 61.4133ZM45.2 53.3078C45.2 53.6545 45.14 54.0411 45.02 54.4678C44.9 54.8811 44.72 55.2811 44.48 55.6678C44.24 56.0411 43.9333 56.3545 43.56 56.6078C43.1733 56.8478 42.72 56.9678 42.2 56.9678L42.2 55.0878C42.2267 55.0878 42.32 55.0811 42.48 55.0678C42.6267 55.0545 42.8 55.0011 43 54.9078C43.1867 54.8011 43.3533 54.6278 43.5 54.3878C43.6467 54.1478 43.72 53.8011 43.72 53.3478C43.72 52.8145 43.6267 52.4145 43.44 52.1478C43.24 51.8811 43.0133 51.7478 42.76 51.7478C42.4667 51.7478 42.24 51.8745 42.08 52.1278C41.9067 52.3678 41.7667 52.6811 41.66 53.0678C41.5533 53.4545 41.4467 53.8678 41.34 54.3078C41.22 54.7345 41.0667 55.1411 40.88 55.5278C40.6933 55.9011 40.44 56.2078 40.12 56.4478C39.7867 56.6878 39.36 56.8078 38.84 56.8078C38.08 56.8078 37.5067 56.5011 37.12 55.8878C36.72 55.2745 36.52 54.4945 36.52 53.5478C36.52 52.8811 36.6267 52.2611 36.84 51.6878C37.04 51.1145 37.3667 50.6545 37.82 50.3078C38.26 49.9611 38.84 49.7878 39.56 49.7878L39.56 51.6678C39.1467 51.6545 38.84 51.7478 38.64 51.9478C38.4267 52.1345 38.28 52.3745 38.2 52.6678C38.12 52.9478 38.08 53.2211 38.08 53.4878C38.08 53.9678 38.1667 54.3345 38.34 54.5878C38.5 54.8278 38.7133 54.9478 38.98 54.9478C39.2867 54.9478 39.5267 54.8278 39.7 54.5878C39.86 54.3345 39.9933 54.0145 40.1 53.6278C40.2067 53.2278 40.32 52.8145 40.44 52.3878C40.5467 51.9478 40.6933 51.5345 40.88 51.1478C41.0667 50.7478 41.32 50.4278 41.64 50.1878C41.9467 49.9345 42.36 49.8078 42.88 49.8078C43.6667 49.8078 44.2533 50.1345 44.64 50.7878C45.0133 51.4278 45.2 52.2678 45.2 53.3078Z" fill="#0C0C0C"/>
<line x1="52" y1="160" x2="52" y2="31" stroke="#0C0C0C" stroke-width="2"/>
<path d="M74.852 78.724C73.5293 78.724 72.548 78.3027 71.908 77.46C71.268 76.6067 70.948 75.46 70.948 74.02C70.948 73.0707 71.0813 72.2493 71.348 71.556C71.6253 70.852 72.052 70.308 72.628 69.924C73.204 69.5293 73.9453 69.332 74.852 69.332C76.196 69.332 77.1827 69.7587 77.812 70.612C78.4413 71.4547 78.756 72.5907 78.756 74.02C78.756 74.948 78.6173 75.7693 78.34 76.484C78.0627 77.188 77.636 77.7373 77.06 78.132C76.484 78.5267 75.748 78.724 74.852 78.724ZM74.852 77.364C75.6733 77.364 76.276 77.0813 76.66 76.516C77.044 75.94 77.236 75.108 77.236 74.02C77.236 72.932 77.044 72.1053 76.66 71.54C76.2867 70.9747 75.684 70.692 74.852 70.692C74.0413 70.692 73.4387 70.964 73.044 71.508C72.66 72.052 72.468 72.8893 72.468 74.02C72.468 75.108 72.6547 75.94 73.028 76.516C73.412 77.0813 74.02 77.364 74.852 77.364ZM83.3948 78.66C82.6801 78.66 82.0774 78.5373 81.5868 78.292C81.0961 78.0467 80.7121 77.732 80.4348 77.348C80.1574 76.9533 79.9761 76.532 79.8908 76.084L81.5068 75.86C81.5174 75.9347 81.5548 76.052 81.6188 76.212C81.6934 76.3613 81.8001 76.5213 81.9388 76.692C82.0881 76.852 82.2801 76.9907 82.5148 77.108C82.7601 77.2253 83.0694 77.284 83.4427 77.284C84.0401 77.284 84.4988 77.108 84.8188 76.756C85.1388 76.404 85.3148 76.0093 85.3468 75.572C85.3788 75.2627 85.3308 74.9587 85.2028 74.66C85.0748 74.3613 84.8668 74.116 84.5788 73.924C84.2908 73.732 83.9281 73.636 83.4908 73.636C83.0854 73.636 82.7601 73.7107 82.5148 73.86C82.2801 73.9987 82.1094 74.1427 82.0028 74.292C81.8961 74.4413 81.8374 74.5213 81.8268 74.532L80.1468 74.244L80.6428 69.492H86.5308V70.9H81.7788L81.4748 73.748C81.4748 73.748 81.5174 73.6893 81.6028 73.572C81.6988 73.444 81.8428 73.3 82.0348 73.14C82.2374 72.98 82.4934 72.8413 82.8028 72.724C83.1228 72.596 83.5068 72.532 83.9548 72.532C84.6694 72.532 85.2561 72.6813 85.7148 72.98C86.1734 73.2787 86.5041 73.6627 86.7068 74.132C86.9201 74.6013 87.0054 75.092 86.9628 75.604C86.9201 76.116 86.7548 76.6067 86.4668 77.076C86.1788 77.5347 85.7734 77.9133 85.2508 78.212C84.7281 78.5107 84.1094 78.66 83.3948 78.66ZM91.7338 75.476V74.34H95.2858V75.476H91.7338ZM104.008 78.724C102.686 78.724 101.704 78.3027 101.064 77.46C100.424 76.6067 100.104 75.46 100.104 74.02C100.104 73.0707 100.238 72.2493 100.504 71.556C100.782 70.852 101.208 70.308 101.784 69.924C102.36 69.5293 103.102 69.332 104.008 69.332C105.352 69.332 106.339 69.7587 106.968 70.612C107.598 71.4547 107.912 72.5907 107.912 74.02C107.912 74.948 107.774 75.7693 107.496 76.484C107.219 77.188 106.792 77.7373 106.216 78.132C105.64 78.5267 104.904 78.724 104.008 78.724ZM104.008 77.364C104.83 77.364 105.432 77.0813 105.816 76.516C106.2 75.94 106.392 75.108 106.392 74.02C106.392 72.932 106.2 72.1053 105.816 71.54C105.443 70.9747 104.84 70.692 104.008 70.692C103.198 70.692 102.595 70.964 102.2 71.508C101.816 72.052 101.624 72.8893 101.624 74.02C101.624 75.108 101.811 75.94 102.184 76.516C102.568 77.0813 103.176 77.364 104.008 77.364ZM112.855 78.66C111.991 78.66 111.276 78.4573 110.711 78.052C110.156 77.6467 109.74 77.1027 109.463 76.42C109.196 75.7267 109.063 74.9693 109.063 74.148C109.063 73.5293 109.148 72.932 109.319 72.356C109.5 71.78 109.756 71.268 110.087 70.82C110.428 70.3613 110.85 69.9987 111.351 69.732C111.863 69.4653 112.45 69.332 113.111 69.332C113.762 69.332 114.29 69.4333 114.695 69.636C115.1 69.828 115.41 70.052 115.623 70.308C115.847 70.564 116.002 70.7933 116.087 70.996C116.172 71.188 116.215 71.284 116.215 71.284L114.599 71.588C114.599 71.588 114.551 71.5187 114.455 71.38C114.37 71.2413 114.21 71.1027 113.975 70.964C113.751 70.8253 113.431 70.756 113.015 70.756C112.61 70.756 112.21 70.8947 111.815 71.172C111.42 71.4493 111.106 71.8813 110.871 72.468C110.647 73.044 110.583 73.7907 110.679 74.708C110.69 74.6013 110.743 74.436 110.839 74.212C110.946 73.988 111.106 73.764 111.319 73.54C111.543 73.3053 111.831 73.108 112.183 72.948C112.535 72.788 112.962 72.7133 113.463 72.724C114.167 72.724 114.743 72.868 115.191 73.156C115.639 73.444 115.964 73.8173 116.167 74.276C116.37 74.724 116.45 75.1987 116.407 75.7C116.375 76.2013 116.215 76.6813 115.927 77.14C115.65 77.588 115.255 77.956 114.743 78.244C114.231 78.5213 113.602 78.66 112.855 78.66ZM112.951 77.3C113.452 77.3 113.858 77.1827 114.167 76.948C114.476 76.7133 114.69 76.4253 114.807 76.084C114.924 75.732 114.94 75.38 114.855 75.028C114.77 74.6653 114.578 74.3613 114.279 74.116C113.991 73.8707 113.602 73.7373 113.111 73.716C112.652 73.7053 112.258 73.8067 111.927 74.02C111.596 74.2227 111.34 74.4893 111.159 74.82C110.988 75.14 110.903 75.4813 110.903 75.844C111.01 76.3347 111.26 76.7027 111.655 76.948C112.05 77.1827 112.482 77.3 112.951 77.3ZM120.898 78.5L123.778 69.492H126.45L129.41 78.5H127.666L126.898 75.956H123.394L122.626 78.5H120.898ZM125.138 70.18L123.778 74.692H126.514L125.138 70.18ZM132.536 78.66C131.96 78.66 131.512 78.548 131.192 78.324C130.872 78.1 130.638 77.812 130.488 77.46C130.35 77.108 130.264 76.74 130.232 76.356C130.2 75.9613 130.184 75.604 130.184 75.284V71.924H131.768V75.284C131.768 75.6147 131.8 75.9293 131.864 76.228C131.928 76.5267 132.062 76.7667 132.264 76.948C132.478 77.1293 132.798 77.22 133.224 77.22C133.64 77.22 133.955 77.1293 134.168 76.948C134.382 76.756 134.526 76.516 134.6 76.228C134.675 75.94 134.718 75.6413 134.728 75.332L134.744 71.924H136.408V78.5H135.016L134.744 77.252H134.712C134.691 77.316 134.638 77.4227 134.552 77.572C134.467 77.7213 134.339 77.8813 134.168 78.052C134.008 78.2227 133.795 78.3667 133.528 78.484C133.262 78.6013 132.931 78.66 132.536 78.66ZM139.463 81.428V79.892H142.343V77.332H142.311C142.301 77.3533 142.253 77.4333 142.167 77.572C142.093 77.7107 141.97 77.8653 141.799 78.036C141.629 78.2067 141.405 78.356 141.127 78.484C140.861 78.6013 140.525 78.66 140.119 78.66C139.149 78.66 138.45 78.3507 138.023 77.732C137.597 77.1133 137.383 76.308 137.383 75.316C137.383 74.2813 137.597 73.46 138.023 72.852C138.461 72.2333 139.159 71.924 140.119 71.924C140.546 71.924 140.898 71.9933 141.175 72.132C141.453 72.26 141.671 72.4147 141.831 72.596C141.991 72.7773 142.103 72.9427 142.167 73.092C142.242 73.2413 142.285 73.332 142.295 73.364H142.327L142.343 71.924H144.023V79.06C144.023 79.9347 143.847 80.548 143.495 80.9C143.154 81.252 142.621 81.428 141.895 81.428H139.463ZM140.631 77.284C141.229 77.284 141.661 77.1027 141.927 76.74C142.194 76.3667 142.327 75.892 142.327 75.316C142.327 74.7613 142.199 74.3027 141.943 73.94C141.687 73.5667 141.261 73.38 140.663 73.38C140.226 73.38 139.885 73.476 139.639 73.668C139.394 73.8493 139.218 74.0893 139.111 74.388C139.015 74.676 138.967 74.9853 138.967 75.316C138.967 75.6467 139.01 75.9667 139.095 76.276C139.191 76.5747 139.357 76.82 139.591 77.012C139.837 77.1933 140.183 77.284 140.631 77.284ZM147.505 78.66C146.929 78.66 146.481 78.548 146.161 78.324C145.841 78.1 145.606 77.812 145.457 77.46C145.318 77.108 145.233 76.74 145.201 76.356C145.169 75.9613 145.153 75.604 145.153 75.284V71.924H146.737V75.284C146.737 75.6147 146.769 75.9293 146.833 76.228C146.897 76.5267 147.03 76.7667 147.233 76.948C147.446 77.1293 147.766 77.22 148.193 77.22C148.609 77.22 148.924 77.1293 149.137 76.948C149.35 76.756 149.494 76.516 149.569 76.228C149.644 75.94 149.686 75.6413 149.697 75.332L149.713 71.924H151.377V78.5H149.985L149.713 77.252H149.681C149.66 77.316 149.606 77.4227 149.521 77.572C149.436 77.7213 149.308 77.8813 149.137 78.052C148.977 78.2227 148.764 78.3667 148.497 78.484C148.23 78.6013 147.9 78.66 147.505 78.66ZM155.36 78.66C155.083 78.66 154.773 78.612 154.432 78.516C154.101 78.42 153.781 78.276 153.472 78.084C153.173 77.892 152.923 77.6467 152.72 77.348C152.528 77.0387 152.432 76.676 152.432 76.26H153.936C153.936 76.2813 153.941 76.356 153.952 76.484C153.963 76.6013 154.005 76.74 154.08 76.9C154.165 77.0493 154.304 77.1827 154.496 77.3C154.688 77.4173 154.965 77.476 155.328 77.476C155.755 77.476 156.075 77.4013 156.288 77.252C156.501 77.092 156.608 76.9107 156.608 76.708C156.608 76.4733 156.507 76.292 156.304 76.164C156.112 76.0253 155.861 75.9133 155.552 75.828C155.243 75.7427 154.912 75.6573 154.56 75.572C154.219 75.476 153.893 75.3533 153.584 75.204C153.285 75.0547 153.04 74.852 152.848 74.596C152.656 74.3293 152.56 73.988 152.56 73.572C152.56 72.964 152.805 72.5053 153.296 72.196C153.787 71.876 154.411 71.716 155.168 71.716C155.701 71.716 156.197 71.8013 156.656 71.972C157.115 72.132 157.483 72.3933 157.76 72.756C158.037 73.108 158.176 73.572 158.176 74.148H156.672C156.683 73.8173 156.608 73.572 156.448 73.412C156.299 73.2413 156.107 73.124 155.872 73.06C155.648 72.996 155.429 72.964 155.216 72.964C154.832 72.964 154.539 73.0333 154.336 73.172C154.144 73.3 154.048 73.4707 154.048 73.684C154.048 73.9293 154.144 74.1213 154.336 74.26C154.539 74.388 154.795 74.4947 155.104 74.58C155.424 74.6653 155.755 74.756 156.096 74.852C156.448 74.9373 156.779 75.0547 157.088 75.204C157.408 75.3533 157.664 75.556 157.856 75.812C158.059 76.0573 158.16 76.388 158.16 76.804C158.16 77.4333 157.899 77.9027 157.376 78.212C156.864 78.5107 156.192 78.66 155.36 78.66ZM161.393 78.5C160.87 78.5 160.475 78.372 160.209 78.116C159.953 77.86 159.825 77.444 159.825 76.868V73.076H158.833V71.924C159.142 71.924 159.382 71.892 159.553 71.828C159.723 71.764 159.846 71.6147 159.921 71.38C159.995 71.1453 160.033 70.7667 160.033 70.244H161.345V71.924H162.849V73.076H161.345V77.22H162.881V78.5H161.393ZM167.672 78.5V77.14C167.672 77.14 167.805 77.0707 168.072 76.932C168.349 76.7827 168.696 76.5853 169.112 76.34C169.528 76.084 169.965 75.796 170.424 75.476C170.883 75.1453 171.304 74.7933 171.688 74.42C172.072 74.036 172.365 73.6413 172.568 73.236C172.813 72.7453 172.888 72.3133 172.792 71.94C172.707 71.5667 172.509 71.2787 172.2 71.076C171.891 70.8627 171.523 70.756 171.096 70.756C170.52 70.756 170.061 70.948 169.72 71.332C169.379 71.716 169.261 72.308 169.368 73.108L167.848 72.9C167.773 72.164 167.875 71.5347 168.152 71.012C168.44 70.4893 168.856 70.0893 169.4 69.812C169.944 69.524 170.568 69.38 171.272 69.38C171.848 69.38 172.365 69.4867 172.824 69.7C173.283 69.9133 173.651 70.2067 173.928 70.58C174.216 70.9533 174.381 71.38 174.424 71.86C174.467 72.34 174.355 72.852 174.088 73.396C173.885 73.8013 173.603 74.1907 173.24 74.564C172.888 74.9267 172.504 75.2573 172.088 75.556C171.683 75.8547 171.283 76.116 170.888 76.34C170.504 76.5533 170.168 76.7293 169.88 76.868C169.592 76.996 169.4 77.0707 169.304 77.092H174.584V78.5H167.672ZM179.649 78.724C178.326 78.724 177.345 78.3027 176.705 77.46C176.065 76.6067 175.745 75.46 175.745 74.02C175.745 73.0707 175.878 72.2493 176.145 71.556C176.422 70.852 176.849 70.308 177.425 69.924C178.001 69.5293 178.742 69.332 179.649 69.332C180.993 69.332 181.98 69.7587 182.609 70.612C183.238 71.4547 183.553 72.5907 183.553 74.02C183.553 74.948 183.414 75.7693 183.137 76.484C182.86 77.188 182.433 77.7373 181.857 78.132C181.281 78.5267 180.545 78.724 179.649 78.724ZM179.649 77.364C180.47 77.364 181.073 77.0813 181.457 76.516C181.841 75.94 182.033 75.108 182.033 74.02C182.033 72.932 181.841 72.1053 181.457 71.54C181.084 70.9747 180.481 70.692 179.649 70.692C178.838 70.692 178.236 70.964 177.841 71.508C177.457 72.052 177.265 72.8893 177.265 74.02C177.265 75.108 177.452 75.94 177.825 76.516C178.209 77.0813 178.817 77.364 179.649 77.364ZM184.688 78.5V77.14C184.688 77.14 184.821 77.0707 185.088 76.932C185.365 76.7827 185.712 76.5853 186.128 76.34C186.544 76.084 186.981 75.796 187.44 75.476C187.898 75.1453 188.32 74.7933 188.704 74.42C189.088 74.036 189.381 73.6413 189.584 73.236C189.829 72.7453 189.904 72.3133 189.808 71.94C189.722 71.5667 189.525 71.2787 189.216 71.076C188.906 70.8627 188.538 70.756 188.112 70.756C187.536 70.756 187.077 70.948 186.736 71.332C186.394 71.716 186.277 72.308 186.384 73.108L184.864 72.9C184.789 72.164 184.89 71.5347 185.168 71.012C185.456 70.4893 185.872 70.0893 186.416 69.812C186.96 69.524 187.584 69.38 188.288 69.38C188.864 69.38 189.381 69.4867 189.84 69.7C190.298 69.9133 190.666 70.2067 190.944 70.58C191.232 70.9533 191.397 71.38 191.44 71.86C191.482 72.34 191.37 72.852 191.104 73.396C190.901 73.8013 190.618 74.1907 190.256 74.564C189.904 74.9267 189.52 75.2573 189.104 75.556C188.698 75.8547 188.298 76.116 187.904 76.34C187.52 76.5533 187.184 76.7293 186.896 76.868C186.608 76.996 186.416 77.0707 186.32 77.092H191.6V78.5H184.688ZM196.585 78.66C195.87 78.66 195.23 78.5373 194.664 78.292C194.099 78.0467 193.651 77.6787 193.321 77.188C193.001 76.6867 192.84 76.068 192.84 75.332L194.409 75.108C194.43 75.8013 194.643 76.3347 195.049 76.708C195.465 77.0707 195.987 77.252 196.617 77.252C197.161 77.252 197.609 77.108 197.961 76.82C198.323 76.5213 198.505 76.148 198.505 75.7C198.505 75.348 198.414 75.076 198.233 74.884C198.051 74.6813 197.822 74.5373 197.545 74.452C197.278 74.356 197.011 74.308 196.745 74.308H195.673V73.46H196.777C197.214 73.46 197.587 73.3693 197.897 73.188C198.217 73.0067 198.377 72.708 198.377 72.292C198.377 71.8013 198.206 71.412 197.865 71.124C197.523 70.836 197.065 70.692 196.489 70.692C196.03 70.692 195.657 70.788 195.369 70.98C195.081 71.172 194.862 71.4067 194.713 71.684C194.574 71.9613 194.499 72.228 194.489 72.484L193.033 72.244C193.033 72.0733 193.086 71.8333 193.193 71.524C193.299 71.204 193.475 70.8787 193.721 70.548C193.977 70.2067 194.323 69.9187 194.761 69.684C195.209 69.4493 195.769 69.332 196.441 69.332C197.518 69.332 198.355 69.5667 198.953 70.036C199.55 70.4947 199.849 71.1187 199.849 71.908C199.849 72.4307 199.699 72.8787 199.401 73.252C199.113 73.6253 198.686 73.8493 198.121 73.924C198.686 73.9987 199.145 74.2333 199.497 74.628C199.849 75.012 200.025 75.4867 200.025 76.052C200.025 76.596 199.875 77.0653 199.577 77.46C199.289 77.844 198.883 78.1427 198.361 78.356C197.838 78.5587 197.246 78.66 196.585 78.66Z" fill="#0C0C0C"/>
<path d="M73.416 100.676C72.9253 100.676 72.44 100.617 71.96 100.5C71.4907 100.383 71.064 100.201 70.68 99.956C70.296 99.7107 69.992 99.3907 69.768 98.996C69.544 98.5907 69.4267 98.1053 69.416 97.54H71.064C71.064 97.5933 71.0853 97.7107 71.128 97.892C71.1707 98.0627 71.2667 98.2493 71.416 98.452C71.576 98.6547 71.8213 98.8307 72.152 98.98C72.4933 99.1293 72.952 99.204 73.528 99.204C74.1573 99.204 74.6213 99.0867 74.92 98.852C75.2293 98.6173 75.384 98.3667 75.384 98.1C75.384 97.8013 75.2773 97.5667 75.064 97.396C74.8613 97.2147 74.584 97.0707 74.232 96.964C73.8907 96.8467 73.512 96.74 73.096 96.644C72.6907 96.548 72.28 96.4413 71.864 96.324C71.4587 96.196 71.0853 96.0307 70.744 95.828C70.4133 95.6147 70.152 95.3427 69.96 95.012C69.768 94.6813 69.6827 94.26 69.704 93.748C69.7573 92.9907 70.12 92.3987 70.792 91.972C71.464 91.5453 72.3547 91.332 73.464 91.332C74.104 91.332 74.696 91.4493 75.24 91.684C75.7947 91.908 76.2373 92.2493 76.568 92.708C76.9093 93.156 77.08 93.732 77.08 94.436H75.496C75.496 94.1053 75.4213 93.8387 75.272 93.636C75.1227 93.4227 74.9307 93.2627 74.696 93.156C74.472 93.0387 74.232 92.964 73.976 92.932C73.72 92.8893 73.4907 92.868 73.288 92.868C72.7547 92.868 72.312 92.9587 71.96 93.14C71.6187 93.3213 71.448 93.588 71.448 93.94C71.4373 94.2387 71.5387 94.4787 71.752 94.66C71.9653 94.8413 72.248 94.9853 72.6 95.092C72.952 95.1987 73.336 95.2947 73.752 95.38C74.168 95.4653 74.584 95.572 75 95.7C75.416 95.8173 75.7947 95.9773 76.136 96.18C76.4773 96.372 76.744 96.6387 76.936 96.98C77.128 97.3107 77.208 97.7427 77.176 98.276C77.1333 99.0333 76.7653 99.6253 76.072 100.052C75.3787 100.468 74.4933 100.676 73.416 100.676ZM80.627 100.5C80.1043 100.5 79.7097 100.372 79.443 100.116C79.187 99.86 79.059 99.444 79.059 98.868V95.076H78.067V93.924C78.3763 93.924 78.6163 93.892 78.787 93.828C78.9577 93.764 79.0803 93.6147 79.155 93.38C79.2297 93.1453 79.267 92.7667 79.267 92.244H80.579V93.924H82.083V95.076H80.579V99.22H82.115V100.5H80.627ZM85.598 100.66C84.6913 100.66 84.046 100.351 83.662 99.732C83.278 99.1133 83.086 98.3027 83.086 97.3C83.086 96.2867 83.278 95.4707 83.662 94.852C84.0567 94.2227 84.702 93.908 85.598 93.908C86.11 93.908 86.5153 93.9987 86.814 94.18C87.1127 94.3507 87.3367 94.5427 87.486 94.756C87.6353 94.9693 87.726 95.1293 87.758 95.236H87.79V93.924H89.47V100.5H88.062L87.79 99.428H87.758C87.726 99.524 87.63 99.6733 87.47 99.876C87.3207 100.068 87.0913 100.249 86.782 100.42C86.4833 100.58 86.0887 100.66 85.598 100.66ZM86.27 99.284C86.8673 99.284 87.2673 99.0973 87.47 98.724C87.6833 98.34 87.79 97.8707 87.79 97.316C87.79 96.7293 87.6833 96.2547 87.47 95.892C87.2567 95.5293 86.8567 95.348 86.27 95.348C85.854 95.348 85.5287 95.4387 85.294 95.62C85.07 95.8013 84.91 96.0413 84.814 96.34C84.7287 96.628 84.686 96.9533 84.686 97.316C84.686 97.6787 84.7287 98.0093 84.814 98.308C84.91 98.6067 85.07 98.8467 85.294 99.028C85.5287 99.1987 85.854 99.284 86.27 99.284ZM90.672 100.5V93.924H92.192L92.304 95.748C92.368 95.4707 92.4907 95.1933 92.672 94.916C92.864 94.628 93.1253 94.3933 93.456 94.212C93.7973 94.02 94.2347 93.924 94.768 93.924H95.008V95.748H94.768C93.8507 95.748 93.2107 95.8973 92.848 96.196C92.4853 96.484 92.304 96.9747 92.304 97.668V100.5H90.672ZM98.3614 100.5C97.8387 100.5 97.444 100.372 97.1774 100.116C96.9214 99.86 96.7934 99.444 96.7934 98.868V95.076H95.8014V93.924C96.1107 93.924 96.3507 93.892 96.5214 93.828C96.692 93.764 96.8147 93.6147 96.8894 93.38C96.964 93.1453 97.0014 92.7667 97.0014 92.244H98.3134V93.924H99.8174V95.076H98.3134V99.22H99.8494V100.5H98.3614Z" fill="#0C0C0C"/>
<path d="M70.168 121.516V116.076H69.272V114.924H70.168V113.852C70.168 113.276 70.296 112.86 70.552 112.604C70.8187 112.348 71.2133 112.22 71.736 112.22H73.464V113.484H71.8V114.924H73.416V116.076H71.8V121.516H70.168ZM74.2814 121.5V114.924H75.8014L75.9134 116.748C75.9774 116.471 76.1 116.193 76.2814 115.916C76.4734 115.628 76.7347 115.393 77.0654 115.212C77.4067 115.02 77.844 114.924 78.3774 114.924H78.6174V116.748H78.3774C77.46 116.748 76.82 116.897 76.4574 117.196C76.0947 117.484 75.9134 117.975 75.9134 118.668V121.5H74.2814ZM82.6648 121.66C81.9181 121.66 81.2994 121.516 80.8088 121.228C80.3181 120.94 79.9501 120.545 79.7048 120.044C79.4594 119.532 79.3368 118.951 79.3368 118.3C79.3261 117.319 79.5981 116.513 80.1528 115.884C80.7181 115.244 81.5554 114.924 82.6648 114.924C83.7421 114.924 84.5581 115.233 85.1128 115.852C85.6781 116.471 85.9608 117.287 85.9608 118.3C85.9608 118.929 85.8434 119.5 85.6088 120.012C85.3741 120.524 85.0114 120.929 84.5208 121.228C84.0301 121.516 83.4114 121.66 82.6648 121.66ZM82.6648 120.284C83.1341 120.284 83.4914 120.183 83.7368 119.98C83.9928 119.777 84.1634 119.521 84.2488 119.212C84.3341 118.892 84.3768 118.572 84.3768 118.252C84.3768 117.921 84.3341 117.596 84.2488 117.276C84.1634 116.956 83.9928 116.695 83.7368 116.492C83.4914 116.289 83.1341 116.188 82.6648 116.188C82.1848 116.188 81.8168 116.295 81.5608 116.508C81.3154 116.711 81.1448 116.972 81.0488 117.292C80.9634 117.601 80.9208 117.921 80.9208 118.252C80.9208 118.572 80.9634 118.892 81.0488 119.212C81.1448 119.521 81.3154 119.777 81.5608 119.98C81.8168 120.183 82.1848 120.284 82.6648 120.284ZM87.1076 121.5V114.924H88.5316L88.5476 116.348H88.5796C88.5903 116.305 88.633 116.215 88.7076 116.076C88.7823 115.927 88.8943 115.767 89.0436 115.596C89.193 115.415 89.3903 115.26 89.6356 115.132C89.881 114.993 90.185 114.924 90.5476 114.924C91.081 114.924 91.481 115.068 91.7476 115.356C92.0143 115.633 92.2063 115.964 92.3236 116.348H92.3556C92.3663 116.305 92.409 116.215 92.4836 116.076C92.569 115.927 92.6916 115.767 92.8516 115.596C93.0223 115.415 93.2356 115.26 93.4916 115.132C93.7476 114.993 94.0623 114.924 94.4356 114.924C94.8516 114.924 95.1876 115.015 95.4436 115.196C95.6996 115.367 95.897 115.591 96.0356 115.868C96.185 116.135 96.2863 116.423 96.3396 116.732C96.4036 117.041 96.4356 117.34 96.4356 117.628C96.4463 117.905 96.4516 118.135 96.4516 118.316V121.5H95.0756V118.3C95.0756 118.14 95.0703 117.953 95.0596 117.74C95.049 117.516 95.0063 117.303 94.9316 117.1C94.857 116.887 94.7343 116.711 94.5636 116.572C94.393 116.433 94.1583 116.364 93.8596 116.364C93.4863 116.364 93.2036 116.465 93.0116 116.668C92.8196 116.86 92.6863 117.111 92.6116 117.42C92.537 117.719 92.4996 118.033 92.4996 118.364V121.5H91.1236V118.3C91.1236 118.14 91.1183 117.953 91.1076 117.74C91.097 117.516 91.0543 117.303 90.9796 117.1C90.905 116.887 90.7823 116.711 90.6116 116.572C90.441 116.433 90.2063 116.364 89.9076 116.364C89.5343 116.364 89.2516 116.465 89.0596 116.668C88.8676 116.86 88.7343 117.111 88.6596 117.42C88.585 117.719 88.5476 118.033 88.5476 118.364V121.5H87.1076Z" fill="#0C0C0C"/>
<path d="M105.991 121.91C105.991 120.01 106.176 118.376 106.545 117.009C106.914 115.628 107.399 114.432 108.001 113.42C108.616 112.408 109.313 111.547 110.093 110.836C110.872 110.125 111.665 109.482 112.472 108.908C113.292 108.334 114.092 107.794 114.871 107.288C115.65 106.782 116.341 106.235 116.942 105.647C117.558 105.06 118.05 104.396 118.419 103.658C118.788 102.92 118.973 102.024 118.973 100.972C118.973 100.726 118.932 100.459 118.85 100.172C118.781 99.8848 118.658 99.6182 118.48 99.3721C118.303 99.1123 118.063 98.9004 117.763 98.7363C117.462 98.5723 117.093 98.4902 116.655 98.4902C116.286 98.4902 115.958 98.5586 115.671 98.6953C115.397 98.832 115.165 99.0029 114.974 99.208C114.796 99.4131 114.659 99.6455 114.563 99.9053C114.481 100.151 114.44 100.391 114.44 100.623C114.44 100.842 114.481 101.054 114.563 101.259C114.659 101.45 114.782 101.621 114.933 101.771C115.083 101.922 115.247 102.045 115.425 102.141C115.616 102.223 115.808 102.264 115.999 102.264C116.204 102.264 116.45 102.223 116.737 102.141C116.505 102.578 116.19 102.975 115.794 103.33C115.411 103.672 114.974 103.959 114.481 104.191C114.003 104.424 113.483 104.602 112.923 104.725C112.376 104.848 111.815 104.909 111.241 104.909C110.503 104.909 109.806 104.807 109.149 104.602C108.507 104.396 107.939 104.089 107.447 103.679C106.969 103.255 106.593 102.735 106.319 102.12C106.046 101.491 105.909 100.753 105.909 99.9053C105.909 98.7705 106.121 97.6699 106.545 96.6035C106.982 95.5371 107.639 94.5869 108.514 93.7529C109.389 92.9189 110.482 92.2559 111.795 91.7637C113.107 91.2578 114.646 91.0049 116.409 91.0049C118.419 91.0049 120.162 91.292 121.639 91.8662C123.129 92.4404 124.359 93.2334 125.33 94.2451C126.314 95.2568 127.046 96.4531 127.524 97.834C128.017 99.2148 128.263 100.705 128.263 102.305C128.263 103.439 128.119 104.424 127.832 105.258C127.545 106.092 127.155 106.816 126.663 107.432C126.171 108.047 125.597 108.58 124.94 109.031C124.298 109.482 123.607 109.899 122.869 110.282C122.145 110.651 121.399 111.007 120.634 111.349C119.868 111.69 119.123 112.066 118.398 112.477C117.688 112.873 117.018 113.324 116.389 113.83C115.76 114.336 115.22 114.944 114.769 115.655C117.53 115.464 119.978 114.958 122.11 114.138C124.243 113.304 126.041 112.23 127.504 110.918C127.408 111.643 127.34 112.36 127.299 113.071C127.258 113.769 127.237 114.466 127.237 115.163C127.237 116.298 127.292 117.433 127.401 118.567C127.524 119.688 127.709 120.803 127.955 121.91C126.246 121.664 124.476 121.479 122.644 121.356C120.812 121.233 118.959 121.172 117.086 121.172C115.172 121.172 113.285 121.233 111.426 121.356C109.58 121.479 107.769 121.664 105.991 121.91ZM152.031 106.119C151.922 106.734 151.84 107.343 151.785 107.944C151.744 108.532 151.724 109.134 151.724 109.749C151.724 110.938 151.826 112.128 152.031 113.317C151.717 113.167 151.382 113.03 151.026 112.907C150.671 112.784 150.315 112.668 149.96 112.559C150.11 114.117 150.309 115.642 150.555 117.132C150.814 118.608 151.136 120.023 151.519 121.377C151.245 121.35 150.931 121.322 150.575 121.295C150.261 121.268 149.878 121.247 149.427 121.233C148.989 121.22 148.483 121.213 147.909 121.213C146.815 121.213 145.53 121.261 144.054 121.356C142.591 121.452 141.005 121.637 139.296 121.91C139.542 121.404 139.761 120.775 139.952 120.023C140.144 119.271 140.308 118.465 140.444 117.604C140.595 116.729 140.711 115.819 140.793 114.876C140.889 113.933 140.964 113.017 141.019 112.128C140.745 112.142 140.267 112.135 139.583 112.107C138.899 112.08 138.045 112.08 137.02 112.107C136.008 112.135 134.853 112.21 133.554 112.333C132.255 112.456 130.854 112.668 129.35 112.969C130.033 110.863 130.669 108.915 131.257 107.124C131.845 105.333 132.378 103.61 132.856 101.956C133.335 100.302 133.745 98.668 134.087 97.0547C134.429 95.4414 134.695 93.7598 134.887 92.0098C137.525 92.2422 140.15 92.3447 142.762 92.3174C145.373 92.2764 147.998 92.1465 150.637 91.9277C150.322 93.4727 150.069 95.3252 149.878 97.4854C149.687 99.6318 149.591 101.936 149.591 104.396V106.878C150.056 106.769 150.493 106.659 150.903 106.55C151.313 106.44 151.689 106.297 152.031 106.119ZM141.224 107.473C141.224 107.117 141.217 106.646 141.203 106.058C141.203 105.47 141.189 104.807 141.162 104.068C141.148 103.33 141.128 102.537 141.101 101.689C141.073 100.828 141.032 99.9531 140.978 99.0645C140.362 100.254 139.87 101.56 139.501 102.981C139.132 104.403 138.797 105.859 138.496 107.35C138.811 107.377 139.091 107.397 139.337 107.411C139.583 107.425 139.809 107.438 140.014 107.452C140.219 107.452 140.417 107.459 140.608 107.473C140.8 107.473 141.005 107.473 141.224 107.473ZM162.962 101.854C162.962 103.016 163.16 103.932 163.557 104.602C163.953 105.258 164.582 105.586 165.443 105.586C165.785 105.586 166.106 105.504 166.407 105.34C166.708 105.162 166.968 104.909 167.187 104.581C167.405 104.253 167.576 103.863 167.699 103.412C167.836 102.947 167.911 102.428 167.925 101.854C167.938 101.334 167.884 100.842 167.761 100.377C167.651 99.8984 167.487 99.4814 167.269 99.126C167.063 98.7568 166.804 98.4697 166.489 98.2646C166.175 98.0459 165.826 97.9365 165.443 97.9365C165.047 97.9365 164.691 98.0391 164.377 98.2441C164.076 98.4492 163.816 98.7295 163.598 99.085C163.393 99.4404 163.235 99.8574 163.126 100.336C163.017 100.814 162.962 101.32 162.962 101.854ZM167.884 110.713C167.761 110.836 167.583 110.966 167.351 111.103C167.118 111.239 166.852 111.369 166.551 111.492C166.25 111.602 165.915 111.697 165.546 111.779C165.177 111.848 164.794 111.882 164.397 111.882C163.591 111.882 162.771 111.813 161.937 111.677C161.116 111.526 160.323 111.294 159.558 110.979C158.792 110.651 158.067 110.234 157.384 109.729C156.714 109.223 156.126 108.607 155.62 107.883C155.128 107.145 154.738 106.29 154.451 105.319C154.164 104.349 154.021 103.248 154.021 102.018C154.021 100.213 154.301 98.6201 154.861 97.2393C155.422 95.8584 156.201 94.7031 157.199 93.7734C158.211 92.8438 159.407 92.1465 160.788 91.6816C162.183 91.2031 163.707 90.9639 165.361 90.9639C167.111 90.9639 168.684 91.2578 170.078 91.8457C171.473 92.4199 172.655 93.2881 173.626 94.4502C174.61 95.6123 175.362 97.0615 175.882 98.7979C176.401 100.534 176.661 102.558 176.661 104.868C176.661 106.194 176.6 107.555 176.477 108.949C176.367 110.344 176.148 111.711 175.82 113.051C175.492 114.377 175.027 115.635 174.426 116.824C173.838 118 173.059 119.032 172.088 119.921C171.131 120.796 169.969 121.493 168.602 122.013C167.234 122.532 165.607 122.792 163.721 122.792C162.627 122.792 161.581 122.648 160.583 122.361C159.585 122.074 158.703 121.678 157.938 121.172C157.186 120.652 156.584 120.037 156.133 119.326C155.682 118.602 155.456 117.802 155.456 116.927C155.456 116.271 155.593 115.655 155.866 115.081C156.14 114.507 156.502 114.015 156.953 113.604C157.418 113.181 157.944 112.853 158.532 112.62C159.12 112.374 159.729 112.251 160.357 112.251C161.164 112.251 161.943 112.463 162.695 112.887C163.447 113.311 164.11 114.001 164.685 114.958C164.37 114.89 164.09 114.855 163.844 114.855C163.57 114.855 163.365 114.944 163.229 115.122C163.105 115.3 163.044 115.491 163.044 115.696C163.044 115.915 163.153 116.127 163.372 116.332C163.591 116.523 163.933 116.619 164.397 116.619C165.136 116.619 165.73 116.435 166.182 116.065C166.646 115.696 167.002 115.225 167.248 114.65C167.508 114.076 167.679 113.44 167.761 112.743C167.843 112.046 167.884 111.369 167.884 110.713ZM202.952 122.218C202.022 122.149 201.168 122.102 200.389 122.074C199.609 122.061 198.878 122.054 198.194 122.054C196.95 122.054 195.897 122.088 195.036 122.156C194.188 122.225 193.498 122.3 192.965 122.382C192.336 122.478 191.83 122.587 191.447 122.71C191.502 122.286 191.557 121.883 191.611 121.5C191.666 121.104 191.707 120.714 191.734 120.331C191.775 119.948 191.803 119.565 191.816 119.183C191.844 118.8 191.857 118.396 191.857 117.973C191.857 116.455 191.796 115.19 191.673 114.179C191.563 113.153 191.399 112.306 191.181 111.636C190.962 110.966 190.695 110.419 190.381 109.995C190.066 109.571 189.718 109.195 189.335 108.867C189.308 109.482 189.287 110.077 189.273 110.651C189.26 111.226 189.253 111.834 189.253 112.477C189.253 113.119 189.267 113.782 189.294 114.466C189.321 115.149 189.369 115.881 189.438 116.66C189.506 117.426 189.608 118.246 189.745 119.121C189.882 119.982 190.053 120.912 190.258 121.91C189.738 121.869 189.157 121.821 188.515 121.767C187.968 121.739 187.318 121.705 186.566 121.664C185.814 121.637 184.987 121.623 184.085 121.623C183.183 121.623 182.226 121.644 181.214 121.685C180.202 121.726 179.143 121.801 178.035 121.91C178.363 121.5 178.657 120.967 178.917 120.311C179.19 119.654 179.43 118.937 179.635 118.157C179.84 117.364 180.011 116.537 180.147 115.676C180.298 114.814 180.428 113.967 180.537 113.133C180.783 111.178 180.947 109.093 181.029 106.878C181.029 105.716 181.016 104.52 180.988 103.289C180.961 102.059 180.893 100.835 180.783 99.6182C180.674 98.3877 180.51 97.1777 180.291 95.9883C180.086 94.7988 179.799 93.6709 179.43 92.6045C180.004 92.6455 180.571 92.6865 181.132 92.7275C181.692 92.7549 182.26 92.7686 182.834 92.7686C185.527 92.7686 188.173 92.4883 190.771 91.9277C190.169 93.7051 189.738 95.4688 189.479 97.2188C189.219 98.9551 189.089 100.691 189.089 102.428C189.089 102.852 189.089 103.275 189.089 103.699C189.103 104.109 189.13 104.526 189.171 104.95C190.333 103.474 191.222 102.024 191.837 100.603C192.466 99.1807 192.78 97.7861 192.78 96.4189C192.78 95.7217 192.698 95.0449 192.534 94.3887C192.384 93.7188 192.131 93.0557 191.775 92.3994C192.459 92.4678 193.136 92.5225 193.806 92.5635C194.489 92.5908 195.173 92.6045 195.856 92.6045C197.032 92.6045 198.208 92.5498 199.384 92.4404C200.56 92.3311 201.749 92.1602 202.952 91.9277C202.72 92.2832 202.508 92.666 202.316 93.0762C202.125 93.4727 201.947 93.8896 201.783 94.3271C201.633 94.751 201.489 95.1816 201.353 95.6191C201.229 96.0566 201.12 96.4736 201.024 96.8701C200.792 97.8135 200.607 98.7705 200.471 99.7412C200.32 100.698 200.067 101.607 199.712 102.469C199.562 102.838 199.377 103.221 199.158 103.617C198.939 104 198.687 104.376 198.399 104.745C198.112 105.101 197.784 105.442 197.415 105.771C197.06 106.085 196.649 106.358 196.185 106.591C197.142 106.987 197.873 107.479 198.379 108.067C198.898 108.655 199.288 109.325 199.548 110.077C199.808 110.815 199.992 111.629 200.102 112.518C200.211 113.393 200.348 114.315 200.512 115.286C200.662 116.106 200.854 116.927 201.086 117.747C201.277 118.444 201.523 119.196 201.824 120.003C202.139 120.81 202.515 121.548 202.952 122.218Z" fill="#4D247E"/>
<line x1="218" y1="160" x2="218" y2="31" stroke="#0C0C0C" stroke-width="2"/>
<path d="M240.5 158.9L229.24 158.9L229.24 154.44C229.24 154.027 229.267 153.573 229.32 153.08C229.373 152.573 229.493 152.087 229.68 151.62C229.867 151.153 230.16 150.773 230.56 150.48C230.96 150.173 231.513 150.02 232.22 150.02C232.647 150.02 233.04 150.107 233.4 150.28C233.76 150.44 234.06 150.747 234.3 151.2C234.527 151.64 234.66 152.273 234.7 153.1L234.76 153.1C234.787 152.14 234.927 151.4 235.18 150.88C235.42 150.36 235.74 150 236.14 149.8C236.54 149.6 236.987 149.5 237.48 149.5C238.2 149.5 238.767 149.66 239.18 149.98C239.58 150.3 239.88 150.713 240.08 151.22C240.267 151.727 240.387 152.26 240.44 152.82C240.48 153.367 240.5 153.873 240.5 154.34L240.5 158.9ZM233.92 156.9L233.92 154.68C233.92 154.213 233.893 153.78 233.84 153.38C233.787 152.967 233.66 152.64 233.46 152.4C233.247 152.16 232.907 152.04 232.44 152.04C231.947 152.04 231.593 152.167 231.38 152.42C231.167 152.66 231.033 152.98 230.98 153.38C230.927 153.78 230.9 154.213 230.9 154.68L230.9 156.9L233.92 156.9ZM238.86 156.88L238.86 154.5C238.86 153.98 238.827 153.5 238.76 153.06C238.693 152.62 238.547 152.267 238.32 152C238.08 151.733 237.707 151.6 237.2 151.6C236.68 151.6 236.3 151.74 236.06 152.02C235.807 152.3 235.647 152.667 235.58 153.12C235.513 153.573 235.48 154.073 235.48 154.62L235.48 156.88L238.86 156.88ZM240.78 142.849C240.78 144.449 240.34 145.669 239.46 146.509C238.567 147.335 237.313 147.749 235.7 147.749L229.24 147.749L229.24 145.569L235.68 145.569C236.507 145.569 237.147 145.435 237.6 145.169C238.053 144.902 238.373 144.562 238.56 144.149C238.747 143.735 238.84 143.302 238.84 142.849C238.84 142.342 238.753 141.882 238.58 141.469C238.393 141.055 238.073 140.729 237.62 140.489C237.167 140.235 236.52 140.109 235.68 140.109L229.24 140.109L229.24 137.949L235.7 137.949C237.34 137.949 238.6 138.362 239.48 139.189C240.347 140.002 240.78 141.222 240.78 142.849ZM240.5 132.537L236.52 132.537L229.24 136.377L229.24 134.097L234.74 131.477L229.24 128.897L229.24 126.617L236.5 130.517L240.5 130.517L240.5 132.537ZM231 122.456L229.24 122.456L229.24 113.756L231 113.756L231 117.096L240.5 117.096L240.5 119.136L231 119.136L231 122.456ZM238.76 107.139L240.5 107.139L240.5 112.159L238.76 112.159L238.76 110.639L231 110.639L231 112.159L229.24 112.159L229.24 107.139L231 107.139L231 108.619L238.76 108.619L238.76 107.139ZM240.7 99.7808C240.7 100.834 240.487 101.787 240.06 102.641C239.62 103.494 238.973 104.174 238.12 104.681C237.267 105.174 236.2 105.421 234.92 105.421C233.667 105.407 232.6 105.154 231.72 104.661C230.84 104.167 230.173 103.494 229.72 102.641C229.267 101.787 229.04 100.814 229.04 99.7208C229.04 98.6808 229.227 97.7941 229.6 97.0608C229.973 96.3274 230.48 95.7408 231.12 95.3008C231.76 94.8474 232.48 94.5541 233.28 94.4208L233.28 96.5208C232.693 96.6141 232.233 96.8341 231.9 97.1808C231.553 97.5141 231.313 97.9074 231.18 98.3608C231.033 98.8141 230.96 99.2674 230.96 99.7208C230.96 100.907 231.293 101.821 231.96 102.461C232.627 103.087 233.567 103.401 234.78 103.401C236.073 103.401 237.067 103.094 237.76 102.481C238.453 101.854 238.8 100.947 238.8 99.7608C238.8 99.2674 238.727 98.7874 238.58 98.3208C238.42 97.8541 238.167 97.4541 237.82 97.1208C237.46 96.7874 236.98 96.5741 236.38 96.4808L236.38 94.3608C237.207 94.5074 237.947 94.8074 238.6 95.2608C239.24 95.7008 239.753 96.3008 240.14 97.0608C240.513 97.8074 240.7 98.7141 240.7 99.7808ZM240.5 92.4695L229.24 92.4695L229.24 90.4295L234.56 90.4295L229.24 85.4495L229.24 82.7895L229.48 82.7895L233.78 87.2495L240.26 82.5495L240.5 82.5495L240.5 84.8895L235.2 88.7295L236.84 90.4295L240.5 90.4295L240.5 92.4695ZM238.86 79.127L238.86 72.907L240.5 72.907L240.5 81.147L229.24 81.147L229.24 73.107L231 73.107L231 79.127L233.96 79.127L233.96 74.507L235.64 74.507L235.64 79.127L238.86 79.127ZM231 71.9875L229.24 71.9875L229.24 63.2875L231 63.2875L231 66.6275L240.5 66.6275L240.5 68.6675L231 68.6675L231 71.9875ZM240.72 57.3706C240.72 57.984 240.647 58.5906 240.5 59.1906C240.353 59.7773 240.127 60.3106 239.82 60.7906C239.513 61.2706 239.113 61.6506 238.62 61.9306C238.113 62.2106 237.507 62.3573 236.8 62.3706L236.8 60.3106C236.867 60.3106 237.013 60.284 237.24 60.2306C237.453 60.1773 237.687 60.0573 237.94 59.8706C238.193 59.6706 238.413 59.364 238.6 58.9506C238.787 58.524 238.88 57.9506 238.88 57.2306C238.88 56.444 238.733 55.864 238.44 55.4906C238.147 55.104 237.833 54.9106 237.5 54.9106C237.127 54.9106 236.833 55.044 236.62 55.3106C236.393 55.564 236.213 55.9106 236.08 56.3506C235.933 56.7773 235.8 57.2506 235.68 57.7706C235.56 58.2773 235.427 58.7906 235.28 59.3106C235.12 59.8173 234.913 60.284 234.66 60.7106C234.393 61.124 234.053 61.4506 233.64 61.6906C233.227 61.9306 232.7 62.0373 232.06 62.0106C231.113 61.944 230.373 61.4906 229.84 60.6506C229.307 59.8106 229.04 58.6973 229.04 57.3106C229.04 56.5106 229.187 55.7706 229.48 55.0906C229.76 54.3973 230.187 53.844 230.76 53.4306C231.32 53.004 232.04 52.7906 232.92 52.7906L232.92 54.7706C232.507 54.7706 232.173 54.864 231.92 55.0506C231.653 55.2373 231.453 55.4773 231.32 55.7706C231.173 56.0506 231.08 56.3506 231.04 56.6706C230.987 56.9906 230.96 57.2773 230.96 57.5306C230.96 58.1973 231.073 58.7506 231.3 59.1906C231.527 59.6173 231.86 59.8306 232.3 59.8306C232.673 59.844 232.973 59.7173 233.2 59.4506C233.427 59.184 233.607 58.8306 233.74 58.3906C233.873 57.9506 233.993 57.4706 234.1 56.9506C234.207 56.4306 234.34 55.9106 234.5 55.3906C234.647 54.8706 234.847 54.3973 235.1 53.9706C235.34 53.544 235.673 53.2106 236.1 52.9706C236.513 52.7306 237.053 52.6306 237.72 52.6706C238.667 52.724 239.407 53.184 239.94 54.0506C240.46 54.9173 240.72 56.024 240.72 57.3706Z" fill="#0C0C0C"/>
<path d="M240.334 38.9997L239.4 39.9497L235.667 36.2163L235.667 44.333L234.334 44.333L234.334 36.2163L230.6 39.9497L229.667 38.9997L235 33.6663L240.334 38.9997Z" fill="#0C0C0C"/>
<rect x="27" y="165" width="139" height="223" rx="13" transform="rotate(-90 27 165)" stroke="#0C0C0C" stroke-width="2"/>
</svg>
