<svg width="20" height="20" viewBox="0 0 20 20" fill="none" xmlns="http://www.w3.org/2000/svg">
<path d="M20 3.88235C19.2639 4.21176 18.4704 4.42824 17.6482 4.53176C18.4895 4.03294 19.1396 3.24235 19.4455 2.29176C18.652 2.76235 17.7725 3.09176 16.8451 3.28C16.0899 2.47059 15.0287 2 13.8241 2C11.5774 2 9.74187 3.80706 9.74187 6.03765C9.74187 6.35765 9.78012 6.66824 9.84704 6.96C6.4436 6.79059 3.413 5.18118 1.39579 2.74353C1.04207 3.33647 0.8413 4.03294 0.8413 4.76706C0.8413 6.16941 1.55832 7.41176 2.6673 8.11765C1.98853 8.11765 1.35755 7.92941 0.803059 7.64706V7.67529C0.803059 9.63294 2.21797 11.2706 4.09178 11.6376C3.49018 11.7997 2.8586 11.8223 2.24665 11.7035C2.50632 12.5059 3.01485 13.2079 3.70078 13.711C4.38671 14.2141 5.21553 14.4929 6.07075 14.5082C4.62106 15.6381 2.82409 16.2488 0.975143 16.24C0.650096 16.24 0.325048 16.2212 0 16.1835C1.81644 17.3318 3.97706 18 6.29063 18C13.8241 18 17.9637 11.8447 17.9637 6.50824C17.9637 6.32941 17.9637 6.16 17.9541 5.98118C18.7572 5.41647 19.4455 4.70118 20 3.88235Z" fill="white"/>
</svg>
