<svg width="20" height="20" viewBox="0 0 20 20" fill="none" xmlns="http://www.w3.org/2000/svg">
<path d="M16.1008 4.63516C15.9743 4.56975 15.8511 4.49804 15.7317 4.42031C15.3845 4.1908 15.0662 3.92037 14.7836 3.61484C14.0766 2.80586 13.8125 1.98516 13.7153 1.41055H13.7192C13.6379 0.933594 13.6715 0.625 13.6766 0.625H10.4563V13.0773C10.4563 13.2445 10.4563 13.4098 10.4493 13.573C10.4493 13.5934 10.4473 13.6121 10.4461 13.634C10.4461 13.643 10.4461 13.6523 10.4442 13.6617V13.6688C10.4102 14.1155 10.267 14.5471 10.0271 14.9256C9.78722 15.304 9.45799 15.6177 9.0684 15.8391C8.66237 16.0701 8.20313 16.1912 7.73598 16.1906C6.23559 16.1906 5.01957 14.9672 5.01957 13.4563C5.01957 11.9453 6.23559 10.7219 7.73598 10.7219C8.02 10.7216 8.30227 10.7663 8.57231 10.8543L8.57622 7.57539C7.75644 7.4695 6.92361 7.53465 6.13027 7.76674C5.33693 7.99882 4.60029 8.3928 3.96684 8.92383C3.41179 9.40609 2.94515 9.98152 2.58793 10.6242C2.452 10.8586 1.93911 11.8004 1.877 13.3289C1.83793 14.1965 2.09848 15.0953 2.2227 15.4668V15.4746C2.30082 15.6934 2.60356 16.4398 3.09692 17.0691C3.49475 17.5739 3.96477 18.0174 4.49184 18.3852V18.3773L4.49965 18.3852C6.05864 19.4445 7.78715 19.375 7.78715 19.375C8.08637 19.3629 9.08872 19.375 10.227 18.8355C11.4895 18.2375 12.2082 17.3465 12.2082 17.3465C12.6674 16.8141 13.0325 16.2074 13.2879 15.5523C13.5793 14.7863 13.6766 13.8676 13.6766 13.5004V6.89414C13.7157 6.91758 14.236 7.26172 14.236 7.26172C14.236 7.26172 14.9856 7.74219 16.1551 8.05508C16.9942 8.27774 18.1247 8.32461 18.1247 8.32461V5.12773C17.7286 5.1707 16.9243 5.0457 16.1008 4.63516Z" fill="white"/>
</svg>
