<svg width="20" height="20" viewBox="0 0 20 20" fill="none" xmlns="http://www.w3.org/2000/svg">
<path d="M10.2037 3.33301C10.6487 3.33551 11.762 3.34634 12.9453 3.39384L13.3653 3.41217C14.5562 3.46801 15.7462 3.56467 16.337 3.72884C17.1245 3.95051 17.7428 4.59551 17.952 5.41384C18.2853 6.71384 18.327 9.24884 18.332 9.86301L18.3328 9.98967V10.1347C18.327 10.7488 18.2853 13.2847 17.952 14.5838C17.7403 15.4047 17.1212 16.0505 16.337 16.2688C15.7462 16.433 14.5562 16.5297 13.3653 16.5855L12.9453 16.6047C11.762 16.6513 10.6487 16.663 10.2037 16.6647L10.0078 16.6655H9.79533C8.85366 16.6597 4.91533 16.6172 3.66199 16.2688C2.87533 16.0472 2.25616 15.4022 2.04699 14.5838C1.71366 13.2838 1.67199 10.7488 1.66699 10.1347V9.86301C1.67199 9.24884 1.71366 6.71301 2.04699 5.41384C2.25866 4.59301 2.87783 3.94717 3.66283 3.72967C4.91533 3.38051 8.85449 3.33801 9.79616 3.33301H10.2037ZM8.33283 7.08301V12.9163L13.3328 9.99967L8.33283 7.08301Z" fill="white"/>
</svg>
