<svg width="24" height="24" viewBox="0 0 24 24" fill="none" xmlns="http://www.w3.org/2000/svg">
<path d="M24 4.65921C23.1166 5.05451 22.1644 5.31427 21.1778 5.43851C22.1874 4.83992 22.9675 3.89121 23.3346 2.75051C22.3824 3.31521 21.327 3.71051 20.2141 3.93639C19.3078 2.9651 18.0344 2.40039 16.5889 2.40039C13.8929 2.40039 11.6902 4.56886 11.6902 7.24557C11.6902 7.62957 11.7361 8.00227 11.8164 8.35239C7.73231 8.1491 4.0956 6.2178 1.67495 3.29263C1.25048 4.00416 1.00956 4.83992 1.00956 5.72086C1.00956 7.40369 1.86998 8.89451 3.20076 9.74157C2.38623 9.74157 1.62906 9.51569 0.963671 9.17686V9.21074C0.963671 11.5599 2.66157 13.5251 4.91013 13.9656C4.18821 14.1601 3.43032 14.1871 2.69598 14.0446C3.00758 15.0074 3.61782 15.8499 4.44094 16.4536C5.26405 17.0573 6.25864 17.3919 7.28489 17.4103C5.54527 18.7661 3.38891 19.4989 1.17017 19.4884C0.780115 19.4884 0.390057 19.4658 0 19.4206C2.17973 20.7985 4.77247 21.6004 7.54876 21.6004C16.5889 21.6004 21.5564 14.214 21.5564 7.81027C21.5564 7.59569 21.5564 7.39239 21.5449 7.1778C22.5086 6.50016 23.3346 5.6418 24 4.65921Z" fill="#0C0C0C"/>
</svg>
